<svg width="373" height="178" viewBox="0 0 373 178" fill="none" xmlns="http://www.w3.org/2000/svg">
<path d="M331.179 144.234C326.356 144.398 321.52 144.026 316.69 143.737C312.559 145.333 308.688 145.11 304.378 144.544C298.37 144.892 291.127 146.284 286.497 141.647C285.786 141.444 285.171 141.992 284.531 142.178C284.13 142.302 284.255 141.544 284.034 141.301C283.278 140.744 282.346 141.328 281.468 141.803C278.799 143.5 279.837 139.341 278.359 138.529C277.69 138.148 276.734 138.006 276.214 137.359C274.561 135.141 278.045 129.109 279.234 134.539C279.417 134.557 279.497 133.802 279.423 133.027C278.552 129.682 281.012 129.528 282.811 127.842C283.308 126.983 281.983 126.653 282.18 125.845C283.77 123.172 286.9 121.096 287.4 117.873C285.924 118.576 284.986 120.456 283.58 121.427C281.567 122.741 279.294 124.579 276.927 124.879C275.255 124.344 275.038 121.616 275.23 120.027C275.256 119.275 274.509 117.817 274.25 119.068C274.017 120.72 275.139 122.465 272.531 122.083C272.383 122.138 272.283 122.236 272.201 122.377C271.384 124.59 271.894 127.171 270.087 128.949C269.362 129.678 268.595 129.425 268.055 130.552C267.163 131.966 267.332 134.547 266.332 135.711C265.838 134.985 266.164 133.721 266.069 132.849C265.832 128.19 264.033 123.178 266.268 118.781C266.565 117.996 265.964 116.573 266.981 116.249C272.848 116.63 264.525 112.887 265.334 107.311C265.136 103.937 266.06 100.459 267.966 97.6445C270.223 94.1553 266.969 97.1189 266.195 98.4729C265.519 99.4945 264.529 100.567 264.943 98.911C268.214 92.6353 275.422 89.0942 282.037 87.4861C289.157 88.7241 284.359 87.887 283.551 84.4623C284.812 81.0534 288.255 78.085 289.788 74.772C291.367 72.1682 292.197 68.3027 294.901 66.7844C295.737 67.169 295.178 69.0392 295.414 69.8723C295.522 70.2441 295.81 70.0131 295.955 69.799C296.988 67.8825 298.202 66.0528 299.216 64.0619C300.528 60.5057 302.266 57.4293 305.878 55.7832C308.637 53.9431 310.037 50.8055 313.205 49.3098C317.675 47.6984 320.464 44.1213 321.854 39.5523C322.033 38.8208 321.72 39.1292 321.426 39.4895C317.877 44.1772 311.07 50.4878 314.361 39.6647C316.506 33.3264 317.311 26.8789 319.276 20.56C319.286 17.4907 319.847 13.3322 318.578 10.3772C316.2 8.77535 313.846 5.46713 310.482 6.96058C307.548 7.98629 304.005 8.02157 301.816 10.3396C301.798 10.5377 303.02 9.98789 303.063 10.1745C303.146 10.4115 302.281 11.2031 303.036 10.8127C303.635 10.5916 305.028 9.1744 305.711 9.53876C305.922 9.75223 305.932 10.138 306.613 10.01C308.109 9.60881 309.789 9.80178 311.236 9.33567C311.831 9.16786 314.447 7.70072 312.753 9.365C311.101 10.6325 311.821 12.4795 312.685 13.87C313.455 14.6378 313.333 16.593 314.566 16.6788C315.461 16.5747 317.771 15.1807 317.49 14.1308C317.218 13.3228 316.076 13.5871 315.448 13.6055C314.879 13.5898 315.26 13.2845 315.629 13.0178C318.762 10.6531 319.761 16.2928 318.064 18.1467C316.181 19.3611 317.824 14.9499 313.921 18.6305C312.701 20.597 313.659 23.1785 313.22 25.3893C313.36 26.0166 311.891 30.3103 313.619 29.5151C313.888 29.3384 314.237 28.9973 314.426 28.8788C314.839 28.5866 314.677 29.3473 314.678 29.6048C314.085 38.4705 309.192 47.3833 302.607 53.2626C297.281 54.6573 295.904 60.3618 292.137 63.6849C290.014 67.2411 289.226 71.6418 286.258 74.67C283.528 77.4099 283.23 75.399 283.554 72.6046C283.515 72.2435 283.311 72.3705 283.008 72.8298C281.469 75.3553 279.969 78.0221 277.876 80.0762C273.628 82.1882 271.722 87.2152 267.518 89.6502C265.462 90.5426 268.731 83.3124 269.534 82.7218C270.627 81.4833 275.511 75.8973 272.33 78.682C268.843 82.5928 265.053 86.1447 261.019 89.4549C260.804 89.6357 260.218 89.9394 260.206 89.531C264.422 80.6854 272.11 73.7185 264.461 63.5899C263.735 62.4631 262.045 60.0282 260.787 60.1334C261.19 61.5465 262.686 63.2138 262.962 64.8853C265.137 70.0843 263.518 75.0925 263.12 80.3465C261.989 86.4441 256.912 91.8759 251.827 95.2096C250.257 96.1006 250.165 96.5461 251.961 95.7464C261.012 91.6526 248.261 99.8682 246.41 100.876C244.499 102.115 242.674 103.629 240.754 104.853C239.926 105.294 240.102 104.502 239.576 104.915C236.865 107.48 234.836 111.083 232.238 113.882C229.112 117.277 227.437 121.66 225.139 125.561C224.46 126.757 222.657 128.383 223.745 125.781C223.554 125.415 222.42 128.452 221.654 127.979C220.544 126.302 219.958 130.318 219.043 131.037C218.476 131.408 218.345 129.863 217.948 129.7C215.234 132.113 215.728 125.89 215.437 124.341C212.084 116.992 217.527 108.944 220.065 102.709C216.249 104.717 219.352 101.188 220.338 99.9409C220.768 99.4505 221.217 98.5574 220.152 99.5288C212.698 106.488 213.621 117.679 211.175 126.817C210.935 128.712 209.095 131.03 207.19 129.481C205.915 124.707 205.895 119.322 206.303 114.332C206.348 113.875 206.383 113.365 206.455 112.951C206.729 112.395 206.556 115.543 206.845 115.433C207.361 111.179 205.906 106.312 209.633 102.954C210.37 102.057 210.332 101.37 209.363 102.297C208.268 103.286 206.347 106.116 205.108 103.856C202.434 98.4325 205.73 92.3066 211.113 90.1657C213.926 85.6928 219.466 85.3676 224.299 85.119C224.689 85.0555 225.01 84.989 224.515 84.832C221.457 83.9566 218.081 85.1628 215.135 84.2574C214.615 83.9505 215.436 82.836 214.804 82.7789C213.818 83.0027 212.68 84.2516 211.742 84.7374C209.929 85.9701 210.675 77.352 207.88 75.8683C205.976 74.796 207.297 78.7554 206.036 78.8305C203.001 76.0973 200.856 71.9268 201.832 67.976C201.991 65.4425 200.33 63.4451 199.242 61.1828C196.741 56.6644 200.975 66.0016 200.013 67.9664C199.886 68.4671 200.041 71.2831 199.038 70.3109C198.751 69.9812 198.015 68.4686 197.909 69.506C197.872 72.183 200.018 74.1713 201.121 76.4402C203.039 79.6936 202.618 84.7067 197.906 83.9094C196.387 83.8499 197.081 83.6907 197.233 84.8476C195.701 87.2514 200.137 86.0437 201.371 85.9173C206.793 86.2211 201.399 92.2345 198.517 92.3022C197.313 92.3205 196.126 92.3529 194.963 92.5352C194.467 92.4768 185.01 90.7252 187.765 92.2948C195.923 92.154 204.22 99.8989 202.773 108.23C201.917 110.195 203.49 110.948 203.524 112.749C203.649 117.31 201.759 121.76 199.947 125.796C199.611 126.568 200.788 125.907 200.894 126.597C200.616 129.518 186.334 146.622 192.941 134.726C194.275 131.729 198.376 126.096 196.52 122.982C196.043 122.642 196.217 122.055 196.404 121.565C198.878 117.569 195.624 113.585 191.047 114.151C188.427 114.868 185.989 114.558 183.391 114.342C176.462 116.001 165.052 134.281 175.685 137.319C181.526 136.974 187.861 131.096 192.174 128.465C190.725 134.901 183.97 139.466 177.66 140.645C174.17 144.041 169.472 141.477 167.153 138.007C162.314 134.461 168.429 121.998 164.398 124.762C161.481 128.113 163.331 122.938 163.213 121.249C162.645 121.718 162.166 124.113 161.824 124.454C160.624 123.009 162.879 117.997 164.23 116.302C166.163 114.009 165.338 114.017 163.553 115.801C162.304 116.861 158.047 123.807 160.005 118.087C161.097 116.243 158.06 118.003 157.527 117.841C156.869 117.626 157.347 116.602 157.533 116.09C160.227 109.443 166.247 104.54 171.234 99.7051C166 101.692 156.4 111.171 162.25 97.771C162.944 96.1116 161.36 94.0183 162.289 92.586C165.191 89.35 169.325 91.6171 172.787 90.9204C174.369 90.0968 176.842 89.3211 177.85 87.9518C176.558 87.4152 166.319 91.7762 167.192 88.5596C167.379 87.9412 168.949 86.5805 168.449 86.2345C153.436 99.1291 157.111 77.6282 166.775 72.2592C167.596 71.372 166.004 71.59 165.509 71.8952C163.65 72.5474 162.419 74.2344 160.646 74.9189C158.588 74.0461 161.633 68.8231 162.242 67.3664C163.233 65.7255 162.9 64.7017 161.15 66.3091C161.042 62.0126 155.702 73.9398 155.576 75.0239C154.775 76.7812 156.022 78.4799 155.776 80.2615C155.924 83.9188 151.763 88.2755 154.605 91.4153C160.084 94.8975 158.337 102.574 153.64 105.942C145.831 110.94 134.534 111.862 130.323 121.367C130.077 121.655 129.566 123.106 130.101 122.139C133.214 116.813 139.5 111.923 145.999 110.959C154.22 109.587 151.998 119.491 149.287 124.018C147.757 124.376 146.751 120.464 145.908 119.519C142.166 116.529 137.537 119.53 134.171 121.933C133.877 122.073 133.621 122.211 133.329 122.261C132.604 122.407 132.922 121.37 132.295 121.745C128.915 124.626 127.192 129.08 125.492 133.079C124.338 136.17 123.473 133.84 123.985 131.821C124.84 126.484 127.759 121.55 131.395 117.606C133.05 116.164 133.937 113.621 131.115 116.109C126.175 120.843 122.795 127.315 121.243 133.918C120.803 136.561 120.081 139.07 118.634 141.393C115.541 145.407 117.107 138.674 116.022 139.223C115.16 140.643 115.968 144.75 117.604 143.817C122.645 140.16 123.641 136.291 119.896 144.575C118.38 149.645 115.034 145.303 115.434 148.52C115.988 150.491 114.543 152.382 112.627 151.235C106.331 147.995 112.413 136.989 108.541 132.243C107.851 131.659 107.776 130.52 107.229 130.025C104.832 130.796 104.124 135.593 104.965 137.326C105.635 138.653 108.278 135.753 107.37 138.54C105.365 143.323 102.18 149.048 97.455 151.525C94.4333 151.2 95.4571 145.897 96.1027 143.726C95.6382 143.574 95.0439 144.795 94.4267 144.859C92.1364 144.016 92.8851 140.065 93.0196 138.071C94.8372 128.466 97.7577 132.912 99.1259 128.124C100.41 122.396 103.94 120.073 108.73 116.751C111.343 111.185 114.354 110.662 119.245 107.826C113.66 108.972 109.002 113.627 104.22 116.486C100.117 123.021 94.9483 129.353 91.7381 136.322C92.2965 127.504 104.587 116.894 101.181 108.51C100.737 106.706 92.0378 112.693 95.7853 111.955C98.462 110.832 99.5848 115.593 98.0313 116.975C95.8836 112.646 92.564 115.75 90.2915 118.301C86.9183 122.553 83.0647 125.95 79.9554 130.298C77.0198 133.597 77.8473 122.526 77.6869 121.12C78.2241 118.334 78.9479 114.582 81.4608 112.924C81.9984 112.457 82.1653 111.651 82.6225 111.113C83.249 110.269 84.668 110.07 85.2456 108.941C86.7367 105.335 86.8188 103.815 90.709 105.946C95.5758 109.916 90.8386 101.104 92.6159 97.9338C93.0131 96.1349 93.8422 94.103 94.798 92.5023C95.1659 92.2206 96.184 92.4948 96.3276 92.2581C96.2241 91.2572 95.8834 90.5673 96.8106 89.3397C99.8549 84.2305 108.934 78.9529 114.139 76.9827C115.228 76.9492 125.017 73.0192 119.343 73.9594C117.801 74.2499 114.478 75.4452 117.267 73.1484C114.394 73.2459 113.162 76.8649 108.87 78.3206C101.375 80.8425 94.8856 85.5185 90.2719 92.3444C89.4644 93.0868 87.786 96.4927 88.2352 94.0993C89.4922 91.1984 88.5357 87.935 87.7842 84.9081C87.6529 84.5227 87.5339 84.326 87.4584 84.7931C87.3796 86.9425 87.7443 89.1536 87.1008 91.2415C86.8666 92.4085 86.1464 90.6677 85.8376 91.6198C85.0792 94.7305 84.2384 97.8542 82.6974 100.698C75.751 113.549 76.1046 126.224 76.0895 140.325C76.1904 140.94 76.8499 139.442 76.8638 139.191C77.9288 135.674 80.1316 132.87 82.7069 130.314C83.7218 128.922 90.5796 119.229 91.7221 123.942C90.6219 130.621 89.2784 138.097 83.5704 142.562C83.2835 142.808 82.9483 143.012 82.9858 143.237C83.2397 143.296 83.7207 143.121 83.9881 143.27C84.2857 143.766 83.4881 145.121 83.5425 145.489C84.7991 145.24 85.9142 141.447 87.5369 141.583C89.307 142.694 86.9421 145.569 86.0406 146.727C83.3902 150.446 79.2078 151.948 75.5877 154.398C74.4443 155.101 73.2988 154.964 72.3526 156.019C70.2721 157.337 65.8705 165.203 65.7629 159.747C72.7188 150.972 76.3624 139.633 73.8406 128.441C73.38 127.426 70.4785 119.456 70.9099 123.61C71.2541 126.663 72.388 129.976 72.0471 133.097C71.9264 133.567 71.4266 132.069 71.2891 132.745C71.2545 135.801 72.0396 139.454 69.4448 134.199C68.7861 133.629 69.1853 134.633 69.222 135.078C70.6315 138.895 69.2763 142.84 66.9348 145.956C66.5551 146.405 66.0518 146.817 65.7495 147.292C65.6149 147.551 66.7446 146.984 66.6103 147.478C66.5926 147.555 66.5538 147.656 66.4933 147.773C65.0513 149.701 64.4283 152.333 61.7095 152.815C57.7358 154.841 53.891 157.1 50.2104 159.668C45.8168 162.108 40.8572 162.387 36.2597 164.143C33.9704 165.051 31.3285 163.353 29.1716 163.737C25.2458 165.57 24.4898 167.559 19.0951 165.708C16.2566 165.75 13.4783 166.364 10.6285 166.695C10.2019 166.776 9.26121 166.989 9.4278 167.334C12.8108 168.317 16.6935 167.214 20.2086 167.438C22.632 167.999 24.6691 167.752 27.0758 167.018C28.3425 166.693 29.3351 167.734 30.5423 167.541C31.0957 167.429 31.8541 166.978 32.6789 166.962C41.1328 166.938 50.4299 167.177 58.6816 166.378C56.0518 163.71 62.7154 164.114 63.7033 162.655C63.9396 162.215 64.3396 162.075 64.7466 162.39C65.9107 163.389 63.9683 164.501 63.3378 165.285C61.5878 167.37 50.9292 171.327 59.0546 169.642C65.757 167.748 60.854 171.085 62.8696 173.862C63.7748 173.917 64.671 172.1 65.7099 171.305C67.137 170.537 67.2748 169.634 68.1619 168.257C71.8215 165.138 75.4428 161.666 80.0645 159.931C82.6471 158.413 86.5114 158.068 89.2624 159.35C93.5314 162.291 92.9535 162.374 88.3372 163.73C87.9232 163.886 87.7505 164.026 87.8973 164.069C89.4885 164.071 91.3194 163.337 92.9727 163.592C95.313 163.81 96.7261 166.642 99.0044 167.417C99.7121 167.348 98.1464 166.579 97.8908 166.263C93.1653 163.178 101.796 162.378 102.273 165.036C102.562 165.972 101.776 167.16 101.996 167.971C102.473 167.629 102.77 166.496 103.087 165.892C106.402 159.833 112.198 169.886 119.317 162.79C121.793 161.036 122.954 162.9 124.732 162.526C123.578 161.442 122.332 162.198 121.546 160.848C121.811 157.724 128.52 158.58 130.919 158.203C132.331 158.232 135.488 159.131 135.749 157.091C132.94 154.244 135.164 153.379 138.228 152.837C141.385 152.228 144.253 152.753 146.976 154.294C148.577 154.568 150.233 154.171 151.716 154.832C150.656 153.341 148.328 154.357 146.718 153.712C143.007 151.652 149.148 150.909 150.695 150.815C153.477 150.723 156.331 151.726 158.971 152.47C163.123 153.273 164.364 151.859 168.133 155.271C168.269 155.383 168.531 155.442 168.382 155.255C164.119 150.556 171.377 153.672 171.602 155.71C169.754 158.271 166.756 156.801 164.316 158.181C166.121 158.782 166.049 157.696 168.145 158.111C169.026 158.031 169.358 158.358 169.637 158.794C171.097 158.873 172.601 158.35 174.094 158.472C184.097 159.664 194.211 158.948 204.11 157.739C203.197 155.957 199.985 156.653 198.796 155.049C198.837 151.97 207.394 150.864 209.583 152.235C210.932 153.276 213.655 153.09 214.6 154.104C215.007 155.115 213.257 156.616 212.502 157.469C212.248 158.448 213.962 157.782 214.223 157.136C216.417 152.818 218.971 150.976 223.071 148.904C225.89 146.492 227.554 143.208 230.334 140.889C232.182 145.382 233.2 144.505 237.1 142.385C238.816 141.985 240.397 143.215 242.015 143.624C245.24 144.852 248.027 142.063 251.099 141.657C251.996 141.469 252.077 142.131 251.486 142.935C250.683 144.328 247.358 143.88 247.694 146.002C249.544 147.403 252.239 144.598 253.788 143.602C254.308 143.447 254.208 143.999 253.99 144.384C252.2 147.002 248.58 146.921 246.032 148.156C244.859 149.105 242.656 150.173 241.387 150.461C244.73 151.174 249.799 149.917 253.674 150.535C259.326 149.959 265.023 151.109 270.649 150.119C273.971 150.644 276.842 148.675 280.033 148.693C282.512 148.947 284.853 150.786 287.499 150.355C295.761 149.829 304.18 148.913 312.375 150.27C317.046 151.131 322.012 152.677 326.678 151.734C323.741 150.502 319.637 150.665 316.551 149.246C316.025 148.963 315.973 148.625 315.784 148.296C315.27 147.618 313.48 147.705 312.903 146.993C312.904 145.97 315.061 146.397 315.873 146.177C321.309 144.381 326.888 146.273 332.313 145.243C334.065 144.923 335.833 144.845 337.576 145.186C338.566 145.379 339.634 145.839 340.493 145.419C337.902 144.036 334.177 144.78 331.25 144.282L331.159 144.273L331.179 144.234ZM94.6764 90.9949C94.6643 91.0412 94.6451 91.0955 94.6184 91.1503C94.6376 91.096 94.6572 91.0492 94.6764 90.9949ZM92.0902 105.75C92.0902 105.75 92.0902 105.75 92.0973 105.741C92.0973 105.741 92.0983 105.757 92.0988 105.764L92.0912 105.765L92.0902 105.75ZM72.9401 137.357C72.9401 137.357 72.9396 137.349 72.9391 137.342C72.9678 137.317 72.9542 137.341 72.9401 137.357ZM74.1865 139.844L74.2006 139.828C74.2006 139.828 74.2016 139.843 74.1946 139.851L74.1865 139.844ZM279.594 79.6908C279.596 79.7285 279.607 79.7733 279.601 79.8039L279.594 79.6908ZM262.581 110.969C262.581 110.969 262.579 110.939 262.571 110.924C262.572 110.939 262.572 110.947 262.581 110.969ZM272.696 138.248L272.68 138.234C272.68 138.234 272.696 138.241 272.704 138.248L272.696 138.248ZM264.703 116.399L264.746 116.365C264.725 116.389 264.71 116.39 264.703 116.399ZM262.634 101.373L262.619 101.139C262.624 101.215 262.644 101.297 262.634 101.373ZM260.432 107.996C260.466 108.054 260.507 108.104 260.548 108.147C260.502 108.143 260.463 108.13 260.439 108.109C260.423 108.095 260.42 108.049 260.431 107.988L260.432 107.996ZM251.298 127.006C251.298 127.006 251.264 126.947 251.247 126.918C251.263 126.94 251.28 126.969 251.298 127.006ZM263.13 113.91L263.152 113.894C263.152 113.894 263.156 113.954 263.158 113.984C263.149 113.962 263.132 113.933 263.123 113.911L263.13 113.91ZM263.33 101.358C263.335 101.206 263.31 101.049 263.323 100.896L263.33 101.358ZM289.824 72.2087C289.824 72.2087 289.823 72.1936 289.831 72.1931C289.839 72.2077 289.855 72.2218 289.863 72.2289C289.848 72.2223 289.832 72.2158 289.817 72.2092L289.824 72.2087ZM291.796 63.677C291.796 63.677 291.8 63.7449 291.802 63.7826C291.8 63.7524 291.798 63.7147 291.796 63.677ZM266.546 86.8499C266.546 86.8499 266.547 86.865 266.548 86.8725C266.541 86.7669 266.534 86.6613 266.527 86.5557C266.56 86.599 266.573 86.6815 266.554 86.8494L266.546 86.8499ZM264.974 85.862C264.974 85.862 264.945 85.8866 264.931 85.9027C264.922 85.8805 264.913 85.8659 264.904 85.8438L264.974 85.862ZM245.896 101.925C248.486 99.8383 251.435 98.1296 254.223 96.2649C255.865 95.0889 257.538 94.1307 259.518 93.7054C260.725 93.2778 260.048 92.8978 259.086 93.0139C257.014 93.3089 257.23 93.1431 258.988 91.755C259.878 90.9921 260.856 90.3067 261.852 89.6806C262.485 89.2755 263.145 89.1641 263.051 90.2764C262.57 94.1493 259.95 97.4199 259.501 101.313C259.219 103.256 258.8 105.186 259.126 107.149C259.209 107.485 259.238 107.824 259.474 108.058C259.785 108.19 259.83 107.134 260.202 107.155C261.898 108.059 260.86 110.824 260.847 112.363C260.526 115.096 261.225 117.907 260.471 120.608C260.017 122.358 259.355 120.356 259.162 121.452C259.074 123.579 258.901 125.788 257.915 127.739C257.584 128.473 257.377 129.236 257.077 129.976C256.722 131.037 254.069 134.484 253.008 132.872C252.442 131.969 252.463 130.672 252.452 129.589C252.456 127.794 252.495 125.965 251.974 124.264C251.435 122.049 250.506 120.011 249.298 118.113C248.991 117.595 248.838 116.651 248.507 116.218C248.436 116.177 248.382 116.271 248.358 116.485C248.323 116.76 248.349 117.152 248.377 117.469C248.649 120.239 248.2 123.33 247.436 126.122C246.922 128.096 247.744 126.769 248.133 125.304C248.434 124.352 248.54 123.307 248.789 122.367C248.871 122.119 249.019 121.723 249.209 122.066C249.524 123.182 249.112 124.406 249.127 125.564C249.079 127.022 249.184 128.516 248.747 129.931C248.07 132.316 246.113 134.142 243.711 134.368C243.224 134.445 241.857 134.391 242.55 133.641C243.425 132.894 244.735 132.065 245.261 131.084C245.288 131.029 245.431 130.777 245.309 130.77C245.04 130.825 244.744 131.171 244.514 131.36C243.281 132.661 241.323 133.88 239.689 132.654C237.85 131.054 237.065 126.014 237.128 123.631C237.225 121.753 237.972 119.977 238.46 118.172C238.993 116.129 239.995 114.086 241.251 112.443C241.701 111.784 242.433 111.176 242.587 110.4C242.504 110.057 242.07 110.374 241.779 110.559C240.4 111.589 239.446 113.114 238.612 114.593C237.386 116.591 236.712 118.665 236.161 120.899C235.745 122.297 235.136 123.64 234.851 125.068C234.683 125.86 234.691 126.678 234.729 127.486C234.82 128.988 234.445 130.437 234.051 131.819C233.785 132.616 233.459 133.433 233.193 134.224C233.082 134.496 232.918 134.886 232.681 134.962C231.915 134.951 231.416 132.885 231.251 132.222C230.952 128.938 231.704 124.805 232.422 121.538C232.596 120.837 232.766 120.083 233.142 119.468C233.689 118.447 235.078 118.363 235.568 117.399C235.843 116.866 235.964 116.161 235.592 116.041C235.055 116.054 234.683 116.495 234.279 116.809C232.332 118.316 232.118 120.83 231.637 123.089C230.89 126.593 230.723 130.18 230.862 133.801C230.761 135.732 229.392 137.617 228.033 138.835C227.397 139.316 226.843 139.875 226.489 140.596C224.363 144.69 223.115 141.946 221.981 143.725C221.628 144.354 221.262 145.348 221.08 145.352C220.974 145.352 220.982 145.237 220.95 145.103C220.897 144.758 220.863 144.344 220.697 144.021C220.411 143.464 219.604 143.525 219.336 143.012C219.02 142.358 219.128 140.995 219.116 140.117C219.187 139.013 220.188 138.334 220.906 137.605C221.963 136.627 222.586 135.154 223.807 134.362C224.239 134.129 224.684 134.213 225.132 134.229C226.094 134.348 226.547 133.28 226.828 132.482C228.358 127.381 229.869 122.114 232.415 117.386C233.553 115.334 234.961 113.567 236.405 111.677C237.615 110.249 238.509 108.645 239.899 107.531C240.331 107.192 240.779 106.859 241.162 106.456C241.773 105.84 242.2 105.069 242.731 104.39C243.523 103.3 244.786 102.687 245.83 101.96L245.902 101.909L245.896 101.925ZM178.736 133.937C178.756 133.89 178.77 133.874 178.778 133.881L178.736 133.937ZM160.389 132.496C160.389 132.496 160.331 132.53 160.308 132.531C160.338 132.514 160.36 132.505 160.389 132.496ZM171.419 148.767C171.419 148.767 171.441 148.758 171.457 148.757C171.449 148.757 171.434 148.766 171.419 148.767ZM224.295 129.329L224.337 129.387C224.337 129.387 224.308 129.404 224.285 129.405C224.284 129.383 224.297 129.359 224.288 129.329L224.295 129.329ZM151.136 129.912C151.136 129.912 151.122 129.936 151.108 129.952C151.114 129.937 151.121 129.928 151.136 129.912ZM170.488 151.548C170.488 151.548 170.506 151.6 170.523 151.621C170.491 151.601 170.482 151.571 170.488 151.548ZM231.319 119.625C231.301 119.687 231.296 119.725 231.281 119.734C231.281 119.734 231.266 119.735 231.258 119.735C231.279 119.703 231.292 119.665 231.312 119.633L231.319 119.625ZM205.806 90.4605C205.805 90.4379 205.819 90.4218 205.825 90.3987C205.825 90.3987 205.84 90.3977 205.839 90.3902C205.826 90.4138 205.812 90.4374 205.806 90.4605ZM207.767 82.3538C207.765 82.316 207.747 82.2718 207.744 82.2265C207.752 82.2411 207.763 82.2859 207.767 82.3538ZM202.704 84.8602C202.803 84.8689 202.888 84.9011 202.974 84.9334C202.966 84.9339 202.959 84.9344 202.944 84.9354C202.874 84.9097 202.789 84.8849 202.704 84.8677L202.704 84.8602ZM159.68 109.888L159.446 109.903C159.512 109.869 159.598 109.908 159.68 109.888ZM149.418 131.108L149.434 131.342C149.377 131.399 149.32 131.456 149.271 131.512C149.323 131.395 149.368 131.263 149.418 131.108ZM209.308 132.319C210.138 132.5 210.156 132.771 209.724 133.239C208.423 134.431 208.368 137.048 206.38 137.353C205.97 137.342 205.608 137.025 205.2 137.036C204.79 137.025 204.383 137.294 204.239 136.94C204.079 136.587 204.125 136.122 204.16 135.74C204.236 135.046 204.535 134.405 204.407 133.732C204.31 133.049 203.765 132.486 203.772 131.781C203.877 130.266 205.181 130.165 206.341 130.976C207.248 131.522 208.191 132.036 209.215 132.295L209.308 132.319ZM207.207 78.3067C207.137 78.2885 207.096 78.2382 207.069 78.1793C207.109 78.207 207.157 78.2418 207.207 78.3067ZM197.83 70.6098L197.845 70.6088C197.845 70.6164 197.846 70.6315 197.847 70.639L197.829 70.6023L197.83 70.6098ZM187.524 115.669C187.524 115.669 187.589 115.612 187.632 115.579L187.976 115.397C187.824 115.498 187.67 115.584 187.524 115.669ZM173.799 136.185C173.799 136.185 173.801 136.208 173.801 136.215C173.794 136.216 173.786 136.216 173.779 136.224C173.786 136.209 173.792 136.193 173.799 136.178L173.799 136.185ZM189.995 128.395C189.381 128.852 188.171 130.045 187.683 129.532C187.461 129.266 187.595 128.538 187.811 127.895C188.254 126.335 189.135 124.641 188.823 123.002C188.58 122.063 187.531 121.67 186.639 121.698C185.164 121.726 183.955 122.821 183.085 123.999C182.601 124.698 181.951 125.771 182.437 126.595C182.723 127.031 183.552 126.961 183.913 126.567C184.395 126.073 184.264 125.339 184.535 124.624C184.912 123.789 185.717 122.652 186.633 122.873C186.767 122.947 186.816 123.118 186.793 123.347C186.728 123.859 186.327 124.567 186.145 125.253C185.738 126.788 185.495 128.509 184.322 129.57C182.314 131.301 179.353 134.109 176.719 131.948C174.814 130.285 176.288 127.801 177.755 125.902C179.127 124.191 180.325 122.347 182.445 121.624C183.071 121.356 182.793 120.927 182.997 120.224C183.121 119.807 183.519 119.402 183.944 119.071C184.944 118.149 186.431 118.181 187.584 117.734C188.005 117.562 188.397 117.309 188.828 117.175C189.59 116.89 190.307 117.313 190.993 117.617C191.727 117.947 192.587 118.005 193.05 118.595C193.846 119.756 193.256 121.15 193.132 122.507C193.004 124.819 191.799 126.898 190.045 128.347L189.973 128.404L189.995 128.395ZM165.317 135.309C165.317 135.309 165.293 135.296 165.285 135.289L165.326 135.218L165.317 135.309ZM156.916 128.746C156.778 129.77 156.504 130.78 156.367 131.812C156.253 132.623 156.162 133.652 155.812 133.637C155.316 133.699 154.659 131.416 154.338 132.188C154.251 132.595 154.317 133.144 154.362 133.595C154.521 134.979 154.85 136.071 155.196 137.185C155.643 138.807 156.793 140.399 156.415 142.136C156.275 142.66 155.926 142.88 155.396 142.551C154.209 141.773 153.066 140.871 152.715 139.439C151.376 134.624 151.88 129.364 153.669 124.761C154.243 123.344 155.334 122.189 156.421 121.194C158.809 118.908 156.851 127.757 156.932 128.646L156.915 128.738L156.916 128.746ZM154.986 132.713L154.943 132.633C154.943 132.633 154.973 132.631 154.988 132.63C154.99 132.66 154.992 132.683 154.994 132.713L154.986 132.713ZM158.136 114.308C158.235 114.203 158.326 114.076 158.416 113.948C158.338 114.143 158.248 114.285 158.136 114.308ZM160.308 79.7067L160.056 80.2612C160.134 80.0515 160.211 79.8419 160.288 79.6323C160.311 79.6459 160.321 79.668 160.308 79.7067ZM139.504 121.575C141.857 120.482 143.581 119.27 145.771 121.581C147.822 123.394 146.895 126.705 146.334 129.022C145.951 130.116 146.221 131.576 147.373 130.311C148.003 129.519 148.008 128.201 148.652 127.401C148.717 127.351 148.763 127.356 148.791 127.429C148.85 128.335 148.578 130.315 148.689 131.421C148.934 132.974 148.628 134.653 147.515 135.817C146.529 136.738 145.593 137.716 144.558 138.572C143.205 139.539 141.38 140.243 139.857 140.941C138.634 141.468 137.317 142.411 135.942 141.902C135.314 141.678 134.869 141.018 134.346 140.779C133.73 140.509 133.054 140.72 132.409 140.467C129.777 139.503 129.124 136.826 129.348 134.227C129.516 131.943 130.769 129.906 132.097 128.092C132.956 126.975 134.183 126.387 135.161 125.353C136.57 124.086 137.593 122.231 139.423 121.603L139.504 121.568L139.504 121.575ZM111.582 150.901C112.125 151.434 113.086 151.992 113.953 152.269C114.054 152.315 114.238 152.341 114.199 152.442C114.107 152.547 113.398 152.707 113.038 152.996C112.553 153.217 112.674 154.141 112.058 153.999C111.89 153.973 111.69 153.925 111.51 153.96C111.292 153.989 111.09 154.131 110.889 154.19C110.807 154.21 110.745 154.199 110.689 154.15C110.474 153.868 110.351 153.498 110.081 153.19C109.688 152.746 109.745 152.121 109.657 151.573C109.557 151.087 109.329 150.617 109.6 150.13C109.747 149.84 109.962 149.53 110.149 149.495C110.432 149.416 110.736 150.002 111.078 150.374C111.217 150.531 111.372 150.703 111.526 150.845L111.59 150.901L111.582 150.901ZM101.464 116.167C101.464 116.167 101.457 116.182 101.45 116.19C101.449 116.183 101.457 116.175 101.464 116.167ZM84.4021 128.089C84.3828 128.257 84.3309 128.39 84.2709 128.515C84.3148 128.376 84.3658 128.228 84.4021 128.089ZM91.2096 136.235C91.1232 137.923 90.5972 139.723 90.2378 141.406C90.1696 141.637 90.1678 141.493 90.1715 141.319C90.276 140.024 90.5355 138.666 90.8372 137.373C90.9104 137.103 90.8655 136.765 90.8421 136.524C90.8066 136.33 91.0322 136.072 91.184 136.191L91.2091 136.228L91.2096 136.235ZM97.3634 161.57C96.9273 161.621 96.4682 161.553 96.0686 161.351C95.4448 161.082 94.9776 160.196 94.6817 160.306C94.472 160.342 94.3625 160.637 94.1503 160.636C93.8938 160.653 93.4506 159.902 93.5708 159.424C93.7869 158.675 94.7747 158.603 95.4693 158.451C96.7761 158.274 98.1071 158.467 99.4223 158.419C100.763 158.407 102.276 158.149 103.672 158.065C103.974 158.037 104.333 157.976 104.55 157.81C104.941 157.535 104.828 156.853 104.969 156.464C105.033 156.286 105.148 156.188 105.287 156.224C105.992 156.579 105.945 157.832 105.732 158.513C105.398 159.543 104.201 159.886 103.185 160.218C102.043 160.596 100.82 160.441 99.6661 160.752C98.8009 160.96 98.1667 161.456 97.4383 161.557L97.3553 161.563L97.3634 161.57ZM111.341 163.51C111.763 163.475 112.307 163.462 112.802 163.27C113.294 163.147 113.598 162.801 113.947 162.589C114.235 162.706 114.364 163.168 114.702 163.358C114.95 163.553 115.302 163.72 115.242 163.966C114.425 165.255 112.305 164.462 111.327 163.526L111.341 163.51ZM213.885 155.674C213.885 155.674 213.883 155.651 213.882 155.636L213.905 155.634C213.905 155.634 213.884 155.658 213.877 155.674L213.885 155.674ZM230.174 136.823C230.237 136.516 230.563 135.949 230.755 135.641C230.981 135.27 231.274 134.887 231.608 134.896C231.852 134.918 231.718 135.184 231.764 135.423C231.806 135.724 232.022 136.013 231.921 136.322C231.877 136.462 231.792 136.657 231.721 136.737C231.637 136.841 231.549 136.657 231.399 136.554C231.035 136.327 230.483 136.803 230.183 136.845L230.181 136.815L230.174 136.823ZM321.037 151.672L321.317 151.669C321.242 151.689 321.136 151.681 321.037 151.672ZM319.706 151.366C319.783 151.391 319.853 151.424 319.924 151.457C319.816 151.426 319.753 151.393 319.706 151.366Z" fill="#1F1E1A"/>
<path d="M332.616 151.133C332.107 150.992 331.362 151.071 330.756 150.959C330.479 150.886 330.476 150.621 330.343 150.433C330.081 150.14 329.614 150.299 329.222 150.325C328.453 150.496 327.421 150.36 326.906 151.06C326.692 151.377 326.571 151.953 327.001 152.046C327.47 152.144 328.308 151.983 328.71 151.646C328.92 151.489 329.121 151.324 329.392 151.299C330.678 151.381 332.008 151.567 333.285 151.733C333.875 151.725 333.131 151.235 332.701 151.15L332.616 151.133Z" fill="#1F1E1A"/>
<path d="M322.936 152.904C322.067 152.484 320.982 152.115 319.948 152.054C319.346 152.01 318.718 151.908 318.197 152.169C317.962 152.389 318.514 152.497 318.698 152.53C320.898 152.795 323.067 153.41 325.124 154.276C325.795 154.459 325.606 153.767 325.07 153.453C324.478 153.083 323.618 153.14 323.013 152.937L322.928 152.912L322.936 152.904Z" fill="#1F1E1A"/>
<path d="M98.2052 82.0655C98.0525 81.9316 95.5725 83.3973 94.8651 84.1635C94.7452 84.3002 94.7269 84.4832 94.9617 84.4829C95.9395 84.3734 98.2697 82.8189 98.2213 82.0796L98.2052 82.0655Z" fill="#1F1E1A"/>
<path d="M73.4032 118.999C73.6169 119.485 73.1567 119.977 73.3281 120.511C73.4729 120.987 73.6022 121.456 73.5216 121.961C73.4919 122.433 73.3355 122.935 73.5433 123.331C73.5854 123.396 73.6402 123.423 73.6925 123.412C73.8183 123.366 73.8734 123.165 73.9017 123.019C73.9802 122.022 74.1388 120.973 74.424 120.008C74.5875 119.497 74.1795 119.167 73.9713 118.764C73.6627 118.103 73.6393 116.937 73.205 116.322C73.0829 116.194 72.924 116.196 72.8353 116.346C72.5626 116.925 73.0977 118.269 73.3691 118.94L73.3967 119.014L73.4032 118.999Z" fill="#1F1E1A"/>
<path d="M73.2694 119.5C73.468 119.525 73.3916 119.052 73.3755 119.038C73.1087 118.783 72.6326 119.148 73.2694 119.5Z" fill="#1F1E1A"/>
<path d="M319.339 2.8112C318.773 2.94686 318.222 3.55881 317.65 3.74024C317.43 3.8456 317.097 3.74615 316.927 3.91645C316.864 4.00389 316.914 4.18248 316.955 4.34648C317.014 4.55475 317.066 4.76351 317.304 4.69487C318.031 4.34414 318.899 3.71897 319.384 3.03554C319.403 2.9737 319.492 2.83149 319.393 2.81529L319.348 2.81826L319.339 2.8112Z" fill="#1F1E1A"/>
<path d="M316.996 153.028C317.462 153.437 318.358 153.234 318.906 153.501C319.17 153.59 319.296 153.9 319.533 154.051C319.713 154.138 319.86 153.947 319.811 153.783C319.637 153.211 317.499 152.147 316.971 152.984L316.989 153.029L316.996 153.028Z" fill="#1F1E1A"/>
<path d="M168.836 53.4173C168.887 53.1564 168.74 52.4235 168.504 52.4086C168.384 52.4165 168.28 52.6809 168.17 52.8623C167.908 53.372 167.376 54.1494 167.534 54.7149C167.637 54.7763 167.888 54.4493 168.067 54.286C168.279 54.0599 168.709 53.6832 168.816 53.4641L168.835 53.4098L168.836 53.4173Z" fill="#1F1E1A"/>
<path d="M318.451 10.1735C318.66 9.32628 319.248 8.46191 319.668 7.71454C319.687 7.65271 319.669 7.616 319.631 7.60339C319.084 7.58619 317.257 9.65311 318.414 10.1985L318.451 10.1735Z" fill="#1F1E1A"/>
<path d="M294.326 12.0125C293.812 11.9174 293.289 12.4896 293.036 12.9153C292.69 13.4078 292.226 13.961 292.339 13.9535C292.848 13.852 294.535 12.5519 294.366 12.0402L294.334 12.0195L294.326 12.0125Z" fill="#1F1E1A"/>
<path d="M335.339 145.635C335.437 145.629 335.992 145.653 335.996 145.592C336.007 145.539 336.041 145.248 335.945 145.164C335.847 145.17 335.451 145.143 335.341 145.196C335.277 145.261 335.323 145.621 335.324 145.636L335.347 145.635L335.339 145.635Z" fill="#1F1E1A"/>
<path d="M195.56 50.3243C197.275 51.9697 197.486 54.7364 198.162 56.9576C198.273 57.2609 198.424 57.8345 198.798 57.7569C199.419 57.1782 199.168 55.9976 199.124 55.2125C198.952 53.86 199.057 52.5802 198.741 51.3432C198.494 50.4578 197.812 49.76 197.541 48.8761C197.12 47.6535 197.561 46.4048 198.107 45.2553C198.205 45.014 198.477 44.4279 198.282 44.3422C198.22 44.3235 198.117 44.3681 197.987 44.4675C197.383 44.9617 196.789 45.5993 196.28 46.163C195.378 47.3132 193.91 49.0687 195.497 50.283L195.561 50.3394L195.56 50.3243ZM197.02 51.7818C197.02 51.7818 197.07 51.8543 197.095 51.883C197.072 51.8845 197.058 51.9006 197.035 51.9021C197.033 51.8643 197.03 51.8266 197.02 51.7818Z" fill="#1F1E1A"/>
<path d="M297.868 12.6515C297.457 12.8603 296.858 12.9602 296.305 13.3146C295.659 13.7359 295.111 14.2794 294.579 14.837C293.415 16.1484 292.123 17.4832 291.598 19.1845C291.541 19.461 290.939 20.6824 291.346 20.6481C292.23 20.0371 292.961 18.9285 293.52 18.1038C293.951 17.28 294.278 16.3721 294.947 15.7145C295.309 15.3347 295.764 15.1155 296.244 14.9173C297.214 14.5734 297.996 13.6736 298.745 12.9728C298.935 12.7483 299.561 12.2375 299.271 11.9837C298.982 11.8436 298.307 12.4182 297.934 12.6169L297.868 12.6515Z" fill="#1F1E1A"/>
<path d="M203.639 52.8935C203.795 52.6181 203.96 52.3573 204.003 52.2029C204.134 51.6639 202.872 52.171 202.496 52.332C201.959 52.5869 201.605 53.0723 201.272 53.5487C200.555 54.6261 199.803 55.7513 199.907 56.9946C199.962 57.5972 200.092 58.4297 200.55 57.445C200.79 57.1641 200.823 58.7076 200.929 58.9431C201.049 59.6246 201.711 61.1648 202.215 61.2227C202.56 61.0486 202.201 60.322 202.12 60.0015C201.579 58.5746 202.05 56.9754 202.611 55.5975C202.932 54.7128 203.12 53.7685 203.59 52.9648L203.638 52.886L203.639 52.8935Z" fill="#1F1E1A"/>
<path d="M173.918 109.22C173.303 109.078 172.58 109.497 172.004 109.724C170.924 110.234 169.581 111.019 168.767 111.883C167.915 113.114 168.787 113.238 169.717 112.518C171.015 111.63 172.212 110.589 173.619 109.739C173.779 109.63 174.09 109.413 173.958 109.247L173.918 109.22Z" fill="#1F1E1A"/>
<path d="M271.118 103.31C271.023 102.672 270.747 101.804 270.663 101.112C270.6 100.381 270.282 100.258 270.178 101.098C270.148 101.578 269.946 102.076 270.029 102.532C270.128 102.882 270.451 103.065 270.371 103.465C270.302 103.924 270.144 104.631 270.031 105.214C269.926 105.699 269.861 106.089 270.074 105.985C270.252 105.927 270.539 105.568 270.69 105.8C270.783 106.052 270.677 106.521 270.778 106.794C270.927 107.217 271.108 106.856 271.151 106.232C271.211 105.417 271.201 104.115 271.13 103.377L271.125 103.302L271.118 103.31Z" fill="#1F1E1A"/>
<path d="M81.3496 160.695C81.1799 160.88 81.1209 161.021 81.3538 160.99C84.2318 159.354 87.0471 159.306 90.0801 160.729C90.2973 160.805 90.5376 160.888 90.4121 160.707C88.0171 158.5 83.8448 158.652 81.407 160.646L81.3501 160.702L81.3496 160.695Z" fill="#1F1E1A"/>
<path d="M205.75 38.8672C205.854 38.6103 205.821 38.1048 205.588 38.1353C205.362 38.1501 205.18 38.6091 204.925 38.8834C204.202 39.4156 203.572 40.1995 203.067 40.9372C202.654 41.4492 202.036 41.7322 201.482 42.064C201.159 42.2291 200.696 42.6837 200.708 42.9709C200.826 43.6223 205.429 39.6307 205.731 38.929L205.75 38.8672Z" fill="#1F1E1A"/>
<path d="M270.047 94.9547C269.845 94.9907 269.757 95.3828 269.726 95.6045C269.658 96.4046 269.593 97.3862 269.528 98.1179C269.56 98.3809 269.718 98.5904 269.667 98.8589C269.622 99.0967 269.572 99.3727 269.748 99.6264C269.894 99.8895 270.593 100.617 270.722 100.047C270.631 98.7654 270.155 97.4024 270.375 96.1303C270.434 95.7703 270.51 95.0759 270.107 94.9432L270.055 94.9466L270.047 94.9547Z" fill="#1F1E1A"/>
<path d="M74.1317 151.258C74.4786 151.349 74.9951 150.906 75.3061 150.681C76.6902 149.719 77.6888 148.539 78.4322 147.051C79.0495 145.95 80.5613 144.972 81.1208 143.799C81.1174 143.746 81.0857 143.725 81.0249 143.722C80.2115 143.911 79.6001 144.641 79.0568 145.252C78.4012 146 77.7917 146.411 77.4049 147.331C77.3091 147.602 76.5589 149.333 76.5062 148.299C76.6011 147.088 77.616 144.771 77.5296 143.799C77.521 143.785 77.5054 143.778 77.4833 143.787C76.5176 145.237 76.4274 147.213 75.4627 148.678C75.037 149.35 74.39 149.998 74.089 150.723C73.9917 150.971 73.9895 151.169 74.093 151.245L74.1246 151.266L74.1317 151.258Z" fill="#1F1E1A"/>
<path d="M309.894 143.856C309.77 144.046 310.017 144.462 310.177 144.588C310.433 144.798 310.697 144.44 310.961 144.415C311.125 144.381 311.277 144.387 311.416 144.302C311.636 144.189 311.707 143.54 312.063 143.767C312.14 143.8 312.216 143.802 312.289 143.752C312.428 143.561 312.57 143.188 312.586 142.967C312.463 142.483 311.732 142.766 311.442 142.974C310.987 143.307 310.492 143.734 309.937 143.823L309.894 143.856Z" fill="#1F1E1A"/>
<path d="M307.463 150.577C307.278 150.528 307 150.334 306.733 150.306C306.388 150.246 306.142 150.77 306.436 150.978C307.655 151.307 309.043 150.981 310.195 151.33C310.617 151.416 310.896 151.049 310.403 150.816C309.588 150.506 308.315 150.733 307.54 150.595L307.471 150.576L307.463 150.577Z" fill="#1F1E1A"/>
<path d="M295.989 17.8511C296.122 17.6758 297.247 16.9352 296.62 16.84C295.784 17.1523 295.07 18.3963 294.437 19.0212C294.153 19.3201 293.833 19.9776 294.533 19.9165C295.293 19.7152 295.562 18.3868 295.947 17.8994L295.989 17.8511Z" fill="#1F1E1A"/>
<path d="M136.019 113.485C136.294 113.398 136.631 112.99 136.96 112.809C137.367 112.555 138.243 112.392 138.415 111.896C138.389 111.261 137.347 111.784 137.009 111.942C136.424 112.269 135.379 112.39 134.961 112.955C134.701 113.488 135.606 113.534 135.952 113.497L136.018 113.477L136.019 113.485Z" fill="#1F1E1A"/>
<path d="M174.635 120.969C174.089 121.422 172.6 122.391 172.804 123.203C173.091 123.647 173.602 123.113 173.909 122.714C174.214 122.293 174.792 121.512 174.666 120.975L174.636 120.977L174.635 120.969Z" fill="#1F1E1A"/>
<path d="M287.425 116.629C287.507 116.601 287.611 116.351 287.766 116.288C288.13 116.173 288.61 116.672 288.73 116.081C288.866 115.602 289.121 115.101 289.373 114.668C289.398 114.598 289.395 114.552 289.348 114.525C288.47 114.416 287.068 115.811 287.394 116.623L287.432 116.621L287.425 116.629Z" fill="#1F1E1A"/>
<path d="M261.026 77.1954C261.197 76.7978 261.118 76.1741 261.11 75.7048C261.122 75.4237 260.896 73.1277 260.519 73.857C260.309 74.6891 260.496 75.8058 260.577 76.702C260.592 76.9208 260.715 77.4204 260.999 77.2426L261.034 77.1949L261.026 77.1954Z" fill="#1F1E1A"/>
<path d="M200.756 44.627C200.25 44.6601 199.703 45.0901 199.452 45.5459C199.173 46.034 199.167 46.739 199.152 47.3234C199.164 47.5045 199.161 48.035 199.394 47.7848C199.858 47.1179 199.878 46.1544 200.247 45.4256C200.35 45.1461 200.651 44.8839 200.772 44.6411L200.756 44.627Z" fill="#1F1E1A"/>
<path d="M83.5838 138.493C82.7502 139.184 82.6881 140.779 82.5407 141.766C82.5219 141.942 82.5141 142.169 82.5778 142.332C82.8508 142.799 82.9865 141.517 83.0888 141.344C83.3252 140.442 83.8101 139.402 83.622 138.498L83.5919 138.5L83.5838 138.493Z" fill="#1F1E1A"/>
<path d="M159.424 66.4525C159.546 66.4672 159.837 66.1678 159.963 66.0155C161.116 64.758 161.982 63.1783 162.831 61.6756C163.18 61.1147 163.65 60.6445 164.079 60.139C164.663 59.4642 164.781 58.6079 165.348 57.8889C165.528 57.6346 165.738 57.3633 165.864 57.0898C166.166 56.3881 165.388 56.6513 165.087 56.9059C164.294 57.5261 163.634 58.3195 163.822 59.1178C163.998 60.1822 162.542 60.5125 162.069 61.2709C161.26 62.3316 160.724 63.8594 159.939 65.0625C159.744 65.4465 159.254 66.062 159.393 66.4394L159.415 66.4379L159.424 66.4525Z" fill="#1F1E1A"/>
<path d="M222.207 87.5291C222.899 87.8019 223.854 88.0424 224.496 88.1215C224.715 88.1147 224.901 87.9434 225.122 87.9593C225.32 87.9841 225.575 88.1796 225.918 88.2101C226.346 88.2579 226.861 88.3681 227.202 88.2623C227.529 88.1651 227.66 87.7247 227.281 87.6132C225.689 87.5963 223.72 87.1496 222.213 87.506L222.214 87.5286L222.207 87.5291Z" fill="#1F1E1A"/>
<path d="M161.111 157.027C160.927 156.993 159.774 155.933 159.811 156.377C160.379 157.423 162.137 158.346 163.27 158.06C163.311 157.996 163.228 157.881 163.1 157.783C162.605 157.399 161.684 157.33 161.181 157.06L161.118 157.026L161.111 157.027Z" fill="#1F1E1A"/>
<path d="M123 125.354C123.3 125.532 123.534 125.054 123.678 124.833C124.133 124.022 124.912 123.426 125.263 122.547C125.301 122.423 125.378 122.213 125.297 122.128C125.265 122.107 125.214 122.133 125.148 122.168C124.303 122.92 123.429 124.266 122.982 125.31L123 125.347L123 125.354Z" fill="#1F1E1A"/>
<path d="M200.103 89.6903C200.133 88.87 197.479 87.6802 196.597 87.7456C197.057 88.1852 198.535 88.4141 199.042 88.987C199.256 89.3594 198.179 89.233 197.99 89.3515C197.871 89.3896 197.822 89.4458 197.857 89.5117C198.069 89.8615 199.828 90.0038 200.083 89.7219L200.103 89.6903Z" fill="#1F1E1A"/>
<path d="M224.537 122.956C224.37 123.179 224.105 124.113 224.216 124.19C225.028 123.167 225.775 121.845 226.52 120.735C226.561 120.664 226.657 120.514 226.669 120.46C226.086 121.051 225.133 122.235 224.586 122.892L224.544 122.956L224.537 122.956Z" fill="#1F1E1A"/>
<path d="M268.051 121.589C267.949 120.618 267.841 119.428 267.329 118.552C267.108 118.309 267.108 118.65 267.13 118.868C267.217 119.742 267.518 120.631 267.643 121.494C267.699 121.65 267.926 121.764 268.023 121.636L268.043 121.589L268.051 121.589Z" fill="#1F1E1A"/>
<path d="M230.251 84.7286C230.569 84.8291 230.899 85.4741 231.274 85.5404C231.544 85.6061 231.941 85.2998 231.674 85.0445C231.56 84.9232 231.362 84.7922 231.603 84.6552C232.165 84.3379 231.872 84.3723 231.494 84.1471C231.327 84.0368 231.244 83.9135 231.046 83.9037C230.318 84.012 229.212 84.13 228.57 84.3918C228.403 84.5013 228.408 84.6979 228.611 84.7907C229.062 84.9582 229.76 84.6245 230.181 84.6953L230.251 84.7211L230.251 84.7286Z" fill="#1F1E1A"/>
<path d="M289.466 113.442C290.117 113.316 291.104 111.728 290.821 111.103C290.789 111.082 290.753 111.107 290.71 111.155C290.371 111.753 289.733 112.765 289.443 113.436L289.467 113.449L289.466 113.442Z" fill="#1F1E1A"/>
<path d="M260.296 63.5143C258.967 62.071 256.962 60.384 254.949 59.9628C254.804 59.9496 254.535 59.8839 254.46 60.0176C254.453 60.1318 254.736 60.2875 254.869 60.3621C256.186 61.0259 256.876 62.4278 257.898 63.4518C258.338 63.8018 258.878 64.6528 259.481 64.4845C259.642 64.4058 259.806 64.2359 259.982 64.391C260.256 64.6383 260.48 65.1691 260.813 65.3897C261.226 65.6809 261.32 65.2656 261.107 64.7946C260.919 64.3523 260.658 63.9452 260.354 63.5863L260.297 63.5218L260.296 63.5143Z" fill="#1F1E1A"/>
<path d="M260.9 67.407C260.901 66.96 260.088 65.8843 259.597 65.7877C259.364 65.8257 259.454 66.0471 259.558 66.2373C259.864 66.6264 260.347 67.5266 260.887 67.4382L260.9 67.407Z" fill="#1F1E1A"/>
<path d="M123.198 106.18C122.902 106.291 121.763 106.608 121.425 106.759C121.269 106.92 121.634 107.056 121.815 107.051C122.308 107.057 122.988 106.558 123.206 106.187L123.191 106.188L123.198 106.18Z" fill="#1F1E1A"/>
<path d="M254.534 59.1718C254.569 58.7907 253.994 58.4495 253.694 58.2722C253.34 58.0757 252.938 57.943 252.834 58.1013C252.744 58.2208 252.871 58.4322 253.053 58.5415C253.434 58.812 254.119 59.0853 254.52 59.1954L254.541 59.1713L254.534 59.1718Z" fill="#1F1E1A"/>
<path d="M291.613 116.604C292.166 116.136 292.749 115.666 293.268 115.155C294.447 114.062 295.052 112.431 296.297 111.418C297.292 110.542 298.653 110.036 299.761 109.372C300.574 108.705 299.127 109.065 298.838 109.266C297.564 110.062 296.069 110.607 294.78 111.282C293.027 112.39 291.408 113.943 290.976 115.896C290.562 116.756 290.398 117.479 291.534 116.662L291.613 116.604Z" fill="#1F1E1A"/>
<path d="M251.11 59.5403C251.264 59.5681 252.286 60.2511 252.174 59.5917C251.87 58.9979 251.089 59.3371 250.527 59.1921C250.088 59.2057 249.618 58.9637 249.226 59.1107C249.111 59.2091 249.186 59.424 249.336 59.5202C249.782 59.8471 250.623 59.5115 251.064 59.5281L251.118 59.5398L251.11 59.5403Z" fill="#1F1E1A"/>
<path d="M124.201 73.2847C124.041 73.2725 123.539 73.2448 123.455 73.3488C123.497 73.6491 123.893 74.0171 124.258 73.925C124.666 73.7997 124.601 73.3722 124.24 73.2974L124.202 73.2998L124.201 73.2847Z" fill="#1F1E1A"/>
<path d="M300.286 101.655C299.872 101.705 299.471 102.163 299.106 102.377C297.928 103.128 296.337 103.596 295.552 104.807C295.217 105.359 294.741 105.951 294.443 106.493C294.384 106.626 294.368 106.733 294.403 106.807C294.562 107.031 294.947 107.013 295.173 107.218C295.413 107.422 295.634 107.438 295.83 107.19C296.433 106.226 297.091 105.274 297.498 104.209C297.796 103.553 298.521 103.173 299.165 102.706C299.475 102.466 300.29 101.958 300.316 101.661L300.3 101.647L300.286 101.655Z" fill="#1F1E1A"/>
<path d="M284.299 128.812C284.636 128.987 284.785 129.758 285.062 129.944C285.224 129.987 285.292 129.861 285.31 129.678C285.353 129.296 285.097 128.972 284.984 128.631C284.889 128.334 284.895 127.849 284.578 127.749C284.338 127.681 283.941 127.639 283.659 127.725C283.535 127.794 283.652 128.074 283.614 128.304C283.602 128.464 283.535 128.605 283.571 128.693C283.627 128.856 284.112 128.734 284.252 128.793L284.307 128.819L284.299 128.812Z" fill="#1F1E1A"/>
<path d="M211.605 101.362C211.835 101.286 212.466 100.639 212.226 100.435C212.088 100.421 211.752 100.602 211.651 100.685C211.486 100.824 211.5 101.149 211.574 101.364L211.605 101.362Z" fill="#1F1E1A"/>
<path d="M270.832 107.261C270.86 107.463 270.796 108.225 270.883 108.386C270.913 108.392 271.012 108.4 271.062 108.344C271.227 108.091 271.286 107.148 270.838 107.238L270.839 107.26L270.832 107.261Z" fill="#1F1E1A"/>
<path d="M197.641 67.1521C197.632 67.2436 197.604 67.5106 197.586 67.7011C197.595 67.8369 197.505 68.0778 197.609 68.0558C198.152 67.8989 198.087 67.3653 197.655 67.136L197.641 67.1521Z" fill="#1F1E1A"/>
<path d="M125.097 73.3169C125.397 73.5018 126.158 73.6641 126.458 73.3869C126.507 73.323 126.471 73.242 126.383 73.1645C126.112 72.9701 125.811 72.8837 125.487 72.7913C124.577 72.5479 124.31 72.7473 125.049 73.2822L125.097 73.3169Z" fill="#1F1E1A"/>
<path d="M300.163 13.3271L300.617 12.8578C300.136 12.7984 300.093 12.8467 300.163 13.3271Z" fill="#1F1E1A"/>
<path d="M206.685 127.324L207.139 126.855C206.658 126.795 206.615 126.844 206.685 127.324Z" fill="#1F1E1A"/>
<path d="M98.879 83.908C98.944 83.8583 99.5233 83.4491 99.5675 83.431C99.3345 83.5751 99.0352 83.6326 98.879 83.908Z" fill="#1F1E1A"/>
<path d="M277.521 139.258C277.667 139.18 277.67 139.104 277.513 139.024L277.528 139.257L277.521 139.258Z" fill="#1F1E1A"/>
<path d="M260.22 88.4768L259.879 88.825C259.88 89.0674 260.453 88.6813 260.22 88.4768Z" fill="#1F1E1A"/>
<path d="M81.784 143.399L81.4432 143.747C81.4439 143.99 82.0172 143.604 81.784 143.399Z" fill="#1F1E1A"/>
<path d="M246.724 128.192C246.364 127.912 246.333 128.127 246.093 128.514C245.967 128.78 245.678 129.117 245.648 129.346C245.772 129.512 245.97 129.636 246.089 129.37C246.272 129.055 246.617 128.525 246.749 128.228L246.724 128.2L246.724 128.192Z" fill="#1F1E1A"/>
<path d="M250.805 118.34C250.9 118.857 251.31 123.27 252.313 121.582C252.609 120.192 252.173 118.743 251.933 117.402C251.733 116.779 251.454 113.1 250.341 113.332C249.999 113.673 250.352 114.43 250.444 114.909C250.865 116.01 250.629 117.154 250.784 118.25L250.79 118.341L250.805 118.34Z" fill="#1F1E1A"/>
<path d="M335.211 64.0433C334.567 63.8203 333.256 63.7017 332.425 63.741C332.124 63.7759 331.684 63.9866 331.142 64.2722C331.01 64.3415 330.885 64.4027 330.789 64.4468C330.774 64.4478 330.753 64.4644 330.731 64.4734C330.73 64.4583 330.714 64.4518 330.706 64.4372C330.604 64.2696 330.468 64.0512 330.296 63.9715C330.082 63.8264 329.842 63.7513 329.593 63.76C329.238 63.7833 327.424 63.9553 326.355 64.2981C325.65 64.5261 325.302 64.996 324.989 65.4181C324.753 65.7442 324.536 66.0236 324.19 66.1751C324.187 66.1373 324.201 66.1062 324.206 66.0755C324.256 65.6858 324.362 64.8682 323.12 64.6541C321.108 64.3466 320.179 64.2787 318.963 65.8509C319.135 65.4684 319.091 65.0243 318.838 64.753C318.626 64.5169 318.303 64.4471 317.971 64.575L317.875 64.6191C317.267 65.0605 316.213 65.7282 315.434 66.2112L315.303 66.2955C314.634 66.7257 314.244 67.0165 314.052 67.2109C313.894 67.3501 313.802 67.5531 313.807 67.7422C313.784 67.971 313.867 68.208 314.046 68.3933C314.217 68.5715 314.458 68.6693 314.677 68.655L314.685 68.6545C315.544 68.583 317.92 67.0331 318.733 66.1539C318.657 66.265 318.494 66.4273 318.337 66.5739C317.894 66.9894 317.395 67.4615 317.664 67.9818C317.866 68.3019 318.298 68.41 318.609 68.4124C319.329 68.4182 319.797 67.8117 320.201 67.2776C320.675 66.648 320.985 66.2867 321.457 66.4376C321.415 66.5009 321.36 66.5803 321.319 66.6436C321.117 66.922 320.84 67.3115 321.022 67.6707C321.138 67.9359 321.416 68.1223 321.776 68.1896C321.891 68.2123 321.997 68.2129 322.103 68.206C322.541 68.1773 322.88 67.9278 323.162 67.7123C323.342 67.5793 323.516 67.4467 323.665 67.4217C323.682 67.4434 323.699 67.465 323.708 67.4871C323.75 67.5525 323.8 67.625 323.849 67.6749C324.086 67.9472 324.511 68.0709 324.877 67.9863C325.55 67.8588 325.944 67.2799 326.255 66.8125L326.42 66.5668C326.705 66.0481 327.126 65.9978 327.813 65.9603C328.054 65.9445 328.303 65.9282 328.557 65.8812C328.692 65.8497 328.833 65.8101 328.975 65.778C329.258 65.7064 329.549 65.6268 329.812 65.5944C329.909 65.5804 329.985 65.5755 330.038 65.5796C329.975 65.667 329.855 65.7885 329.726 65.9106C329.413 66.2191 329.057 66.5607 329.114 66.9661C329.143 67.1914 329.292 67.3711 329.559 67.5203C330.553 68.0082 331.182 67.1941 331.684 66.5399C332.055 66.061 332.388 65.6073 332.794 65.6716C332.886 65.6883 332.988 65.7347 333.043 65.769C333.022 65.7931 333.001 65.8247 332.98 65.8488C332.917 65.9212 332.861 66.0006 332.82 66.0715C332.548 66.5364 332.592 66.9729 332.949 67.2298C333.795 67.7653 334.76 67.1036 335.295 66.2577C335.865 65.3567 335.852 64.4635 335.196 64.0519L335.211 64.0433Z" fill="#201F1B"/>
<path d="M330.171 68.0711L330.089 67.978C329.835 67.7977 329.572 67.724 329.303 67.772C328.681 67.8809 328.219 68.5855 327.848 69.1553C327.751 69.3056 327.662 69.4403 327.557 69.576C327.42 69.8047 327.178 69.7979 326.68 69.7244C326.451 69.6939 326.207 69.6645 325.988 69.6789C325.868 69.7019 325.703 69.7278 325.487 69.7799C325.226 69.8424 324.532 70.0092 324.407 69.9567C324.407 69.9567 324.406 69.9341 324.398 69.927C324.596 69.6034 324.958 68.9963 324.657 68.4553C324.537 68.2284 324.339 68.0974 324.095 68.0755C323.555 68.0427 322.91 68.6077 322.578 68.978C322.53 68.8296 322.437 68.6766 322.314 68.5332C322.109 68.2966 321.85 68.1545 321.577 68.1572C321.142 68.2311 320.746 68.6511 320.285 69.1435C319.748 69.7242 319.131 70.3783 318.474 70.2926C318.546 70.1137 318.623 69.9041 318.672 69.7266C318.849 68.9649 318.602 68.6553 318.366 68.5268C317.864 68.2642 317.12 68.707 316.661 69.2144C316.61 69.2556 316.576 69.3033 316.533 69.344C316.426 68.9873 316.081 68.6842 315.735 68.6159C315.46 68.5734 315.224 68.6722 315.047 68.7444C314.892 68.8152 314.715 68.8949 314.541 68.8987C314.42 68.8991 314.296 68.8467 314.156 68.7952C313.961 68.7171 313.736 68.6333 313.488 68.6572C313.374 68.6646 313.201 68.6835 313.046 68.7467C312.663 68.9082 311.742 69.5368 310.942 70.1651C310.961 70.1108 310.988 70.056 310.992 69.9952C311.02 69.6145 310.877 69.283 310.599 69.089C310.321 68.8951 309.956 68.8736 309.632 69.0161C309.078 69.2342 308.717 69.7428 308.371 70.2352C308.038 70.7041 307.734 71.1483 307.343 71.2042C307.26 71.2096 307.136 71.1572 307.011 71.1123C306.84 71.0477 306.646 70.9771 306.449 70.9749C306.282 70.9707 306.109 70.9821 305.936 71.001C305.709 71.0158 305.499 71.0448 305.3 71.0048C305.254 71.0002 305.23 70.9866 305.222 70.9795C305.163 70.8849 305.277 70.5516 305.335 70.3887C305.473 69.9554 305.445 69.639 305.257 69.4316C305.208 69.3818 305.153 69.34 305.09 69.3062C305.698 69.2209 306.26 68.5552 306.632 68.1065L306.766 67.9537C307.041 67.6402 307.274 67.3674 307.61 67.2999C307.864 67.2453 308.295 67.2247 308.74 67.203C309.352 67.1705 309.865 67.1369 310.277 67.0644C310.178 67.177 310.087 67.289 310.003 67.393C309.654 67.8478 309.553 68.2711 309.717 68.5786C309.812 68.7542 310.045 68.9586 310.596 68.9225C310.626 68.9206 310.648 68.9191 310.678 68.9171C311.342 68.7448 312.848 67.4566 313.309 66.9717C313.422 66.8507 313.527 66.715 313.601 66.5738C313.853 66.1405 313.875 65.6693 313.665 65.3573C313.498 65.1107 313.195 65.0017 312.85 65.0546L312.768 65.0751C312.325 65.2481 311.846 65.5826 311.401 65.9603C311.365 65.6369 311.229 65.2897 310.967 65.1099C310.576 64.9234 310.145 65.0577 309.767 65.181C309.626 65.2281 309.492 65.2672 309.342 65.2922C308.984 65.3763 308.621 65.3849 308.242 65.387C307.629 65.3893 306.985 65.4012 306.351 65.7837C306.088 65.9222 305.939 66.0835 305.761 66.2618L305.676 66.3507C305.35 66.6828 304.86 67.1922 304.571 67.5143C304.154 67.8673 303.966 68.5768 304.38 69.1179C304.453 69.1813 304.539 69.2211 304.625 69.2609C304.542 69.2664 304.459 69.2794 304.362 69.3084L304.332 69.3104C303.731 69.4938 303.218 70.232 302.769 70.8828C302.63 71.0813 302.499 71.2717 302.386 71.4079C302.309 71.4963 302.186 71.5953 302.057 71.7022C301.74 71.9503 301.3 72.2898 301.428 72.8497C301.52 73.1088 301.669 73.2961 301.88 73.3883C302.028 73.4619 302.196 73.4812 302.362 73.4704C302.649 73.4516 302.952 73.3407 303.226 73.2394C303.433 73.1652 303.633 73.0915 303.791 73.0736C305.194 72.8604 306.603 72.859 307.654 73.0628C308.023 73.1447 308.235 73.0172 308.488 72.8264C308.777 72.618 309.135 72.299 309.49 71.9423C309.495 72.1314 309.545 72.3176 309.646 72.4701C309.813 72.7091 310.079 72.8356 310.381 72.8158C310.389 72.8154 310.404 72.8144 310.411 72.8139C310.954 72.7783 311.426 72.3458 311.877 71.9374C312.077 71.7576 312.277 71.5702 312.48 71.4281C312.339 71.7026 312.276 72.0248 312.531 72.3339C312.818 72.6636 313.126 72.7344 313.338 72.7281C313.36 72.7266 313.375 72.7256 313.398 72.7241C313.949 72.688 314.448 72.2158 314.771 71.8234C314.799 71.7913 314.82 71.7672 314.841 71.7355C314.842 71.7581 314.844 71.7807 314.845 71.8034C314.918 72.2153 315.279 72.6312 315.739 72.601C316.033 72.5817 316.314 72.4799 316.558 72.3806C316.654 72.344 316.742 72.3004 316.846 72.2708C317.12 72.1695 317.402 72.1965 317.723 72.2361L317.959 72.2585C318.716 72.3679 319.386 72.0664 320.034 71.7739C320.166 71.7122 320.291 71.6586 320.394 71.6139C320.468 71.5863 320.542 71.5587 320.609 71.5317C320.734 71.478 320.801 71.4584 320.854 71.455C320.871 71.4842 320.889 71.5284 320.906 71.5576C320.968 71.69 321.039 71.852 321.168 71.9799C321.62 72.3973 322.165 72.1646 322.563 71.9945C322.681 71.9413 322.792 71.8962 322.911 71.8656C323.03 71.8275 323.127 71.8136 323.233 71.7991L323.64 71.7724C324.438 71.6973 325.523 71.6035 326.207 71.6344C326.344 71.6481 326.468 71.6931 326.6 71.7375C326.763 71.795 326.949 71.8585 327.169 71.8668C327.215 71.8639 327.26 71.8609 327.305 71.8579C327.629 71.8366 327.97 71.7158 328.244 71.5084C328.273 71.4838 330.754 69.23 330.142 68.0882L330.171 68.0711ZM318.175 70.4714L318.211 70.4462L318.168 70.4718L318.175 70.4714Z" fill="#201F1B"/>
<path d="M333.73 67.5801C332.496 66.8958 331.743 68.1347 331.252 68.9549C331.142 69.1363 331.04 69.3022 330.95 69.4368C330.873 69.5404 330.759 69.6388 330.637 69.7453C330.422 69.9336 330.185 70.1386 330.069 70.4417C329.958 70.7142 330.024 71.0356 330.237 71.2717C330.425 71.4791 330.673 71.5764 330.968 71.5571C331.058 71.5512 331.148 71.5377 331.245 71.5087C331.624 71.3929 331.941 71.1448 332.077 71.0223C332.585 70.4586 333.508 69.2843 333.807 68.8707C333.984 68.5712 334.048 68.0442 333.868 67.7226L333.746 67.5942L333.73 67.5801Z" fill="#201F1B"/>
<path d="M226.384 73.0036C226.495 72.8448 226.606 72.701 226.712 72.5729C226.782 72.4925 226.869 72.4263 226.97 72.3515C227.078 72.2686 227.194 72.1852 227.285 72.0732L227.313 72.041C227.459 71.842 227.571 71.4635 227.518 71.1259C227.482 70.9237 227.389 70.7632 227.23 70.6599C226.842 70.3975 226.404 70.5398 226.062 70.6456C225.951 70.6832 225.84 70.7207 225.743 70.7347C225.45 70.7766 224.943 70.7871 224.353 70.8031C222.038 70.8639 218.876 70.9348 218.666 72.5851C218.704 72.9312 219.072 73.2329 219.395 73.3102C219.811 73.4117 220.188 73.2658 220.521 73.1379C220.676 73.0822 220.824 73.0271 220.966 72.995C221.603 72.8926 222.276 72.8637 222.933 72.8434C223.289 72.8277 223.644 72.8119 224.036 72.7862L224.022 72.8023C223.836 73.0872 223.615 73.4199 223.605 73.7237C223.593 73.8911 223.649 74.0466 223.763 74.1679C223.942 74.3608 224.22 74.441 224.432 74.4423C225.329 74.4744 225.919 73.6628 226.392 73.0106L226.384 73.0036Z" fill="#201F1B"/>
<path d="M220.741 76.3813C221.015 75.9391 221.048 75.4065 220.823 75.0955C220.715 74.9435 220.457 74.7104 219.934 74.828L219.881 74.8314C219.593 74.9412 219.4 75.1206 219.137 75.3728L218.894 75.6008C218.566 75.9178 218.219 76.289 217.902 76.6508C217.676 76.908 217.36 77.2848 217.146 77.602C217.008 77.808 216.877 78.006 216.895 78.2776C216.9 78.3606 216.922 78.4577 216.959 78.5613C217.059 78.8199 217.251 78.974 217.503 78.9954C218.548 79.1012 220.486 76.7769 220.741 76.3813Z" fill="#201F1B"/>
<path d="M231.435 70.422C231.154 70.1904 230.712 70.1512 230.276 70.3162L230.239 70.3337C229.782 70.5304 229.382 71.1324 229.023 71.656C228.878 71.8701 228.747 72.0681 228.634 72.2043C228.543 72.3088 228.413 72.4158 228.277 72.5308C228.061 72.7041 227.845 72.8773 227.709 73.1135C227.626 73.2402 227.591 73.3865 227.6 73.5298C227.612 73.7109 227.7 73.8946 227.868 74.0351C228.132 74.2526 228.419 74.3475 228.72 74.3202C229.307 74.2589 229.824 73.7098 230.301 73.1255C230.298 73.1863 230.286 73.2401 230.289 73.2929C230.307 73.5645 230.408 73.8382 230.58 74.0315L230.676 74.1085C230.623 74.112 230.579 74.1301 230.541 74.1326L230.496 74.1355C229.925 74.3169 229.48 74.9371 229.057 75.5255C228.835 75.8356 228.626 76.122 228.44 76.2932C228.419 76.3174 228.382 76.3349 228.361 76.3515C228.536 76.1279 228.717 75.8887 228.796 75.5881C228.899 75.2025 228.824 74.8589 228.581 74.6323C228.331 74.3987 227.949 74.3479 227.565 74.4944L227.52 74.5124C227.065 74.7241 226.705 75.2553 226.353 75.7709C226.152 76.0644 225.966 76.3418 225.809 76.4961L225.672 76.6035C225.298 76.9084 224.845 77.279 224.875 77.7241C224.876 77.7392 224.877 77.7543 224.878 77.7694C224.918 78.0395 225.13 78.2681 225.566 78.4441C226.343 78.628 227.022 78.0001 227.535 77.3906C227.536 77.4057 227.537 77.4208 227.538 77.4434C227.559 77.7527 227.718 78.0984 228.052 78.228C228.455 78.3683 228.899 78.2028 229.291 78.0635C229.535 77.9717 229.772 77.888 229.969 77.8827C230.127 77.8723 230.324 77.8594 230.551 77.8596C231.897 77.8244 233.043 77.7417 233.445 77.1698C233.55 77.0266 233.647 76.7853 233.534 76.4367C233.44 76.17 233.23 75.9641 232.999 75.9035C232.741 75.7916 232.41 75.8209 232.086 75.8497C231.867 75.8641 231.559 75.8994 231.426 75.8399C231.434 75.7258 231.469 75.5643 231.497 75.4185C231.583 75.0037 231.689 74.5346 231.406 74.2577C231.365 74.2149 231.319 74.2028 231.272 74.1756C231.848 74.0621 232.369 73.4597 232.812 72.9457C233.087 72.6246 233.404 72.2629 233.56 72.2147C233.815 72.1678 234.191 72.1279 234.583 72.0947C235.72 71.9898 237.007 71.86 237.477 71.2837C237.617 71.1078 237.686 70.8911 237.654 70.6356C237.589 70.3368 237.454 70.126 237.249 70.003C236.941 69.8186 236.574 69.873 236.328 69.9346C236.164 69.9757 236.007 70.0087 235.865 70.0483C235.47 70.1499 235.15 70.2315 234.741 70.2431L234.666 70.2481C233.11 70.3273 232.651 70.3651 231.669 71.4598C231.689 71.4055 231.716 71.3583 231.72 71.305C231.816 70.8137 231.602 70.5475 231.465 70.4276L231.435 70.422Z" fill="#201F1B"/>
<path d="M223.734 77.0792L223.907 76.833C223.99 76.7139 224.135 76.6059 224.286 76.4899C224.553 76.2905 224.886 76.0415 224.955 75.605C224.999 75.3446 224.92 75.0694 224.732 74.862C224.561 74.6687 224.334 74.5623 224.107 74.5696L224.125 74.8487L224.118 74.8492L224.061 74.565C223.225 74.6425 222.657 75.445 222.198 76.0812C222.087 76.2325 221.983 76.3833 221.885 76.5033C221.801 76.6073 221.679 76.7138 221.55 76.8283C221.256 77.0825 220.92 77.3773 220.875 77.85C220.876 77.8727 220.878 77.8953 220.88 77.9255C220.901 78.2499 221.156 78.559 221.414 78.6784C222.299 79.1129 223.207 77.8335 223.756 77.0777L223.734 77.0792Z" fill="#201F1B"/>
<path d="M138.816 106.46C139.423 105.897 140.816 104.495 140.659 103.604C140.626 103.439 140.521 103.219 140.215 103.064C140.457 103.056 140.722 102.948 140.945 102.759C141.257 102.541 141.525 102.244 141.786 101.954C142.104 101.599 142.436 101.237 142.76 101.087C142.968 101.028 143.36 101.002 143.783 100.982C144.976 100.919 146.464 100.836 146.6 99.8045C146.645 99.438 146.566 99.1703 146.381 99.0006C146.098 98.7313 145.662 98.7826 145.213 98.8651L145.261 99.1422L145.183 98.8671C144.823 98.9285 144.431 98.9618 144.047 98.987C143.443 99.0266 142.818 99.0827 142.216 99.2661C141.296 99.6825 139.309 101.267 139.38 102.346C139.383 102.392 139.386 102.437 139.396 102.474C139.488 102.726 139.659 102.904 139.869 102.989C139.41 103.034 138.945 103.458 138.56 103.817C138.524 103.85 138.481 103.89 138.438 103.923C138.309 103.583 138.113 103.361 137.857 103.264C137.196 103.02 136.382 103.657 135.524 104.319C135.041 104.692 134.536 105.081 134.15 105.212C133.532 105.48 133.19 105.472 133.101 105.379C133.111 105.311 133.136 105.218 133.159 105.111C133.255 104.725 133.379 104.194 133.165 103.822C132.959 103.457 132.452 103.46 132.157 103.577C131.481 103.91 131.078 104.694 131.132 105.509C131.137 105.592 131.143 105.675 131.163 105.757C131.319 106.64 131.988 107.248 132.896 107.34C134.255 107.501 135.331 106.802 136.369 106.12C136.515 106.027 136.653 105.935 136.791 105.85C136.678 106.092 136.604 106.354 136.674 106.6C136.734 106.831 136.897 107.002 137.155 107.129C137.74 107.379 138.312 106.864 138.692 106.528L138.799 106.43L138.816 106.46ZM138.283 104.335L138.341 104.301L138.356 104.3L138.29 104.335L138.283 104.335Z" fill="#201F1B"/>
<path d="M136.259 101.771C136.318 101.744 136.384 101.717 136.458 101.689C136.731 101.573 137.224 101.359 137.317 101.497C137.344 101.563 137.371 101.637 137.399 101.711C137.511 102.037 137.669 102.474 138.111 102.634C138.501 102.805 138.88 102.69 139.114 102.333C139.479 101.779 139.435 100.645 138.83 100.087L138.64 100.296L138.814 100.065C137.367 98.6899 134.272 100.469 132.994 101.553L132.901 101.635C132.644 101.871 132.164 102.304 132.196 102.779C132.205 102.93 132.268 103.078 132.399 103.228C133.027 103.899 134.201 103.095 135.239 102.39C135.637 102.114 136.015 101.862 136.259 101.771Z" fill="#201F1B"/>
<path d="M63.9417 110.36C64.3384 110.054 64.9243 109.978 65.469 109.965C65.4236 110.081 65.3415 110.215 65.2589 110.342C65.0599 110.658 64.813 111.053 65.0906 111.474C65.3473 111.806 65.6399 111.878 65.8446 111.88C66.3978 111.881 66.8655 111.388 67.0962 111.093C67.5933 110.469 68.0339 109.448 67.9422 108.742C67.8973 108.404 67.734 108.225 67.5828 108.114C67.2757 107.937 66.9272 107.937 66.5862 107.937C66.4499 107.938 66.3061 107.94 66.1763 107.926C66.0235 107.905 65.8716 107.9 65.7278 107.902C66.3295 107.719 66.8717 107.206 67.4073 106.708C67.7497 106.383 68.0708 106.082 68.3849 105.902C68.632 105.742 68.7726 105.46 68.7876 105.11C68.7914 104.822 68.6588 104.649 68.5468 104.558C68.2272 104.306 67.7096 104.385 67.4264 104.457L67.3595 104.476C66.8654 104.683 66.2609 105.17 65.7288 105.606L65.1751 106.059C64.795 106.387 64.5222 106.617 64.374 106.9C64.3493 106.985 64.3321 107.069 64.338 107.16C64.3469 107.295 64.3936 107.429 64.485 107.552C64.6356 107.769 64.8723 107.913 65.1026 107.958C63.2425 108.247 61.617 109.687 60.9282 110.391C60.8859 110.439 60.8436 110.488 60.8014 110.536C60.5612 110.802 60.2565 111.125 60.2847 111.555C60.2852 111.562 60.2857 111.57 60.2862 111.577L60.3153 111.674C60.507 112.055 60.7724 112.174 60.972 112.214C61.6855 112.349 62.5584 111.565 63.2591 110.928C63.5239 110.691 63.7671 110.47 63.9493 110.36L63.9417 110.36Z" fill="#201F1B"/>
<path d="M69.5946 104.822C69.5558 104.923 69.5396 105.023 69.5465 105.129C69.5579 105.302 69.6301 105.479 69.7602 105.615C69.9566 105.837 70.2285 105.94 70.4523 106.001C70.2815 106.285 70.0527 106.724 70.276 107.126C70.414 107.383 70.7045 107.538 70.9268 107.576C71.6176 107.713 72.1015 107.234 72.452 106.802C72.599 106.618 72.731 106.435 72.8484 106.261C73.0348 105.983 73.2005 105.738 73.3474 105.667C73.5467 105.586 73.8615 105.535 74.199 105.483C75.0315 105.352 76.0737 105.186 76.2643 104.279C76.2657 103.953 76.1734 103.702 75.9739 103.548C75.5906 103.247 74.9869 103.401 74.4582 103.541C74.2494 103.593 74.0482 103.644 73.8978 103.661C73.755 103.678 73.5432 103.685 73.2867 103.701C71.6708 103.785 70.0522 103.944 69.5946 104.822Z" fill="#201F1B"/>
<path d="M70.237 110.463L70.377 110.287C70.4808 110.136 70.5996 109.984 70.7109 109.833C71.0041 109.45 71.276 109.092 71.3705 108.684C71.4081 108.333 71.2908 108.045 71.0591 107.863C70.8119 107.675 70.4614 107.645 70.1067 107.782L70.07 107.799C69.6206 107.995 69.2131 108.598 68.854 109.129C68.7089 109.343 68.5779 109.541 68.4656 109.677C68.3815 109.781 68.2521 109.888 68.1077 109.996C67.8847 110.178 67.6471 110.367 67.5191 110.611C67.4511 110.729 67.4218 110.86 67.4302 110.988C67.445 111.214 67.581 111.44 67.8188 111.599C68.8304 112.237 69.7198 111.126 70.2445 110.462L70.237 110.463Z" fill="#201F1B"/>
<path d="M48.652 117.06C48.2012 117.234 47.716 117.576 47.6914 118.01C47.6929 118.032 47.6944 118.055 47.6963 118.085C47.7092 118.281 47.8241 118.531 48.2166 118.74C48.3267 118.801 48.4669 118.86 48.5916 118.913C48.3729 119.276 48.3016 119.69 48.4134 120.008C48.4876 120.215 48.6338 120.365 48.773 120.409C49.3027 120.745 50.2835 120.219 50.6838 119.738C50.9038 119.511 51.0565 119.297 51.1879 119.106C51.5002 118.669 51.6735 118.423 52.3228 118.388L52.3907 118.383C52.5194 118.383 52.6557 118.381 52.7774 118.388C52.7568 118.42 52.7356 118.444 52.7225 118.475C52.4686 118.878 52.118 119.424 52.4796 119.855C53.0986 120.398 53.9393 120.047 54.4907 119.443C54.6956 119.217 54.8915 118.97 55.0804 118.73C55.4097 118.322 55.725 117.93 56.0467 117.636L56.096 117.58C56.2739 117.288 56.2711 116.667 55.9862 116.367C55.6275 116.095 55.1963 116.222 54.8623 116.327C54.7063 116.375 54.5574 116.415 54.4216 116.424C53.8865 116.467 53.3272 116.488 52.775 116.502C51.3985 116.539 49.9842 116.579 48.6595 117.06L48.652 117.06Z" fill="#201F1B"/>
<path d="M59.3967 119.849C58.6011 119.848 58.1073 120.638 57.7018 121.271C57.5371 121.531 57.3859 121.769 57.2369 121.922C57.1729 121.987 57.0864 122.053 56.9918 122.113C57.1877 121.865 57.3836 121.617 57.4755 121.285C57.579 120.9 57.5034 120.556 57.2613 120.33C57.0111 120.096 56.6289 120.045 56.2445 120.192L56.2003 120.21C55.7439 120.414 55.3852 120.953 55.0326 121.468C54.8321 121.762 54.6533 122.039 54.4967 122.193L54.3598 122.3C53.9858 122.605 53.5252 122.976 53.5549 123.429C53.5559 123.444 53.5569 123.459 53.5579 123.474C53.5983 123.744 53.8103 123.973 54.2461 124.149C55.0234 124.333 55.702 123.705 56.2227 123.095C56.2232 123.102 56.2237 123.11 56.2242 123.118C56.2257 123.14 56.2272 123.163 56.2287 123.185C56.264 123.494 56.385 123.721 56.5981 123.851C57.0323 124.118 57.6395 123.904 58.1351 123.72C58.2312 123.683 58.3127 123.655 58.3796 123.635C58.6402 123.565 59.0948 123.566 59.5801 123.572C60.8153 123.574 62.5051 123.577 62.6096 122.282C62.6201 121.865 62.3484 121.534 61.9818 121.49C61.6369 121.429 61.1962 121.526 60.7631 121.623C60.6288 121.654 60.5021 121.686 60.3672 121.709C60.2249 121.734 59.8502 121.796 59.7632 121.742C59.7743 121.68 59.8293 121.593 59.8842 121.506C59.932 121.427 59.9804 121.356 60.0137 121.286C60.1679 120.98 60.1628 120.556 60.0143 120.255C59.9014 120.035 59.7175 119.888 59.4877 119.85L59.4113 119.84L59.3967 119.849Z" fill="#201F1B"/>
<path d="M60.1366 116.11C59.8562 115.879 59.4142 115.839 58.978 116.004L58.9412 116.022C58.4844 116.219 58.0844 116.821 57.7247 117.344C57.5797 117.558 57.4487 117.756 57.3364 117.893C57.2448 117.997 57.1154 118.104 56.979 118.219C56.763 118.392 56.5471 118.566 56.411 118.802C56.3289 118.936 56.2926 119.075 56.302 119.218C56.3143 119.407 56.4016 119.583 56.5699 119.723C56.8342 119.941 57.1208 120.036 57.4221 120.008C58.009 119.947 58.5261 119.398 59.0035 118.821C59.0065 118.867 58.9863 118.906 58.9893 118.951C58.9967 119.064 59.0273 119.183 59.0799 119.294C59.2465 119.639 59.5938 119.851 59.9564 119.835C60.8063 119.855 61.2612 119.166 61.6194 118.619C61.7987 118.35 61.964 118.097 62.1089 117.996C62.52 117.795 63.017 117.747 63.537 117.706C63.8161 117.688 64.0872 117.662 64.3639 117.606C64.4539 117.593 64.5435 117.572 64.6486 117.557C65.1737 117.477 65.8865 117.37 66.0581 116.753C66.1425 116.421 66.0182 116.028 65.7615 115.81C65.6328 115.697 65.4765 115.624 65.3317 115.611C64.7826 115.556 63.2218 115.787 62.2947 115.976L62.1227 116.01C61.8163 116.076 61.5326 116.14 61.2478 116.303C60.8085 116.536 60.5577 116.871 60.33 117.211C60.3628 117.134 60.3955 117.056 60.4132 116.979C60.5098 116.487 60.2954 116.221 60.1587 116.101L60.1366 116.11ZM59.8067 117.897C59.7639 117.938 59.698 117.973 59.6245 118.008C59.7998 117.792 59.969 117.599 60.128 117.482C60.1421 117.466 60.1557 117.443 60.1698 117.427C60.052 117.593 59.9411 117.752 59.8067 117.897Z" fill="#201F1B"/>
<path d="M50.886 121.778C50.7747 121.929 50.6704 122.073 50.5727 122.2C50.4886 122.304 50.3668 122.411 50.2379 122.525C49.9439 122.779 49.6071 123.074 49.5624 123.547C49.5638 123.569 49.5653 123.592 49.5673 123.622C49.5886 123.947 49.8437 124.256 50.1016 124.375C50.9862 124.81 51.8949 123.53 52.4439 122.775L52.6172 122.528C52.7003 122.409 52.8447 122.301 52.9962 122.185C53.2635 121.986 53.5957 121.737 53.6656 121.3C53.7096 121.047 53.6229 120.765 53.4426 120.557C53.2708 120.364 53.0441 120.258 52.8173 120.265L52.7796 120.267L52.7721 120.268C51.9361 120.345 51.3674 121.148 50.9016 121.785L50.886 121.778Z" fill="#201F1B"/>
<path d="M48.385 123.389L48.525 123.213C48.6288 123.062 48.7476 122.911 48.8589 122.759C49.152 122.377 49.424 122.018 49.5185 121.61C49.5561 121.259 49.4463 120.971 49.2071 120.789C48.9599 120.601 48.6094 120.571 48.2547 120.708L48.2179 120.725C47.7686 120.922 47.3611 121.524 47.0019 122.055C46.8569 122.269 46.7259 122.467 46.6136 122.604C46.5295 122.708 46.4001 122.815 46.2632 122.922C46.0402 123.103 45.8026 123.293 45.6746 123.536C45.6066 123.655 45.5773 123.785 45.5857 123.914C45.6005 124.14 45.7366 124.366 45.9743 124.524C46.9859 125.163 47.8753 124.051 48.4001 123.388L48.385 123.389Z" fill="#201F1B"/>
<path d="M124.817 96.3229C124.977 96.3352 125.139 96.3776 125.308 96.412C125.73 96.5055 126.215 96.6177 126.671 96.3984C127.281 96.1235 127.707 95.6789 128.126 95.2498C128.828 94.5219 129.438 93.8909 130.823 94.2093L130.899 94.2194C131.303 94.2536 131.981 94.3076 132.267 93.7055C132.399 93.174 132.196 92.8539 132.01 92.6692C131.203 91.9114 129.111 92.3667 128.591 92.5296C128.013 92.7266 127.45 93.2636 126.994 93.7026C126.844 93.8488 126.701 93.9794 126.565 94.0944C126.45 94.1929 126.414 94.218 126.324 94.239C126.205 94.2696 126.045 94.2497 125.884 94.2299C125.708 94.2036 125.517 94.1783 125.323 94.2138C125.075 94.2527 124.838 94.3289 124.601 94.4126C124.193 94.5454 123.8 94.6773 123.437 94.5723C123.466 94.5477 123.494 94.523 123.515 94.4989L123.644 94.3844C123.766 94.2779 124.137 93.9278 124.078 93.4847C124.044 93.0853 123.757 92.748 123.388 92.6662C122.767 92.5629 122.054 93.0037 121.729 93.4871C121.653 93.5906 121.569 93.7097 121.473 93.8524C121.521 93.5538 121.488 93.2832 121.339 93.0884C121.281 93.0088 121.169 92.9101 121.006 92.8526C121.096 92.8467 121.194 92.8403 121.298 92.8032C121.424 92.7646 121.549 92.7109 121.651 92.6361C122.004 92.3629 123.012 91.327 123.524 90.7024C123.332 91.0105 123.194 91.3302 123.147 91.6591C123.149 91.6893 123.144 91.7199 123.146 91.7501C123.164 92.0292 123.372 92.3111 123.684 92.4422C124.285 92.6073 124.766 92.0833 125.113 91.7045C125.183 91.6241 125.254 91.5512 125.326 91.4859C125.411 91.397 125.489 91.3161 125.566 91.2277C125.807 90.9619 125.99 90.7605 126.25 90.6828C126.467 90.6383 126.822 90.615 127.199 90.5903C128.422 90.5177 129.939 90.4335 130.038 89.4041C130.075 89.038 130.004 88.7699 129.819 88.6002C129.529 88.3389 129.085 88.3907 128.659 88.4717L128.629 88.4736C128.3 88.5407 127.907 88.5664 127.5 88.6006C126.415 88.6869 125.179 88.7832 124.47 89.5267C124.236 89.7693 124.003 90.0346 123.794 90.3135C123.972 89.9003 123.944 89.4853 123.707 89.213C123.469 88.9407 123.086 88.8673 122.663 89.0087L122.574 89.0448C122.219 89.2803 121.751 89.7806 121.341 90.2243C121.178 90.4016 121.023 90.5709 120.874 90.7246C120.81 90.797 120.746 90.8618 120.683 90.9341C120.534 91.0879 120.385 91.2492 120.278 91.4608C120.191 91.6407 120.159 91.8398 120.171 92.0209C120.184 92.2246 120.257 92.4168 120.381 92.5678C120.479 92.6825 120.597 92.7506 120.729 92.795C120.639 92.8009 120.548 92.7993 120.435 92.8218L120.499 93.098L120.383 92.8328C120.094 92.9276 119.901 93.1144 119.638 93.3666L119.395 93.5947C119.082 93.9031 118.741 94.2588 118.424 94.6205C118.334 94.7401 118.235 94.8527 118.136 94.9652C117.827 95.3265 117.502 95.6963 117.399 96.1955C117.4 96.2106 117.401 96.2257 117.402 96.2408C117.418 96.4973 117.593 96.7358 117.86 96.885C118.143 97.0407 118.454 97.0431 118.702 96.8905C119.129 96.5897 119.89 95.9488 120.509 95.3325C120.421 95.4973 120.374 95.7049 120.394 95.8931C120.403 96.0213 120.433 96.1405 120.493 96.2502C120.605 96.455 120.787 96.5719 121.009 96.5953C121.299 96.6293 121.59 96.5648 121.867 96.5087C122.083 96.4642 122.285 96.4207 122.482 96.4229C122.823 96.4158 123.177 96.3925 123.525 96.3773C123.993 96.3466 124.461 96.3235 124.832 96.3295L124.817 96.3229Z" fill="#201F1B"/>
<path d="M145.49 87.4819C145.347 87.4989 145.135 87.5052 144.879 87.522C143.263 87.6052 141.644 87.7643 141.186 88.6429C141.148 88.7439 141.131 88.8435 141.138 88.9491C141.15 89.1226 141.222 89.2997 141.344 89.4357C141.541 89.6577 141.813 89.7611 142.037 89.8222C141.866 90.1061 141.644 90.5449 141.86 90.9475C141.998 91.2036 142.289 91.3588 142.511 91.3973C143.202 91.5338 143.686 91.0551 144.036 90.623C144.183 90.4391 144.315 90.2562 144.433 90.0818C144.627 89.8039 144.785 89.5586 144.932 89.4884C145.131 89.4072 145.446 89.3562 145.783 89.3038C146.616 89.1734 147.658 89.0066 147.849 88.1001C147.857 87.7661 147.75 87.5231 147.558 87.369C147.175 87.0683 146.571 87.2216 146.042 87.3623C145.834 87.4139 145.632 87.465 145.482 87.4824L145.49 87.4819Z" fill="#201F1B"/>
<path d="M138.118 91.3064C138.303 91.5898 138.681 91.6863 139.151 91.5797C139.92 91.408 140.777 90.7154 140.923 89.7133C140.95 89.1963 140.77 88.7686 140.402 88.4594C139.705 87.8838 138.482 87.8428 137.632 88.0501L137.594 88.0525C136.732 88.306 134.611 90.165 134.663 91.1844C134.674 91.358 134.759 91.7236 135.296 91.8248C136.024 91.9589 136.505 91.4349 136.816 91.0888C136.915 90.9838 137.02 90.8556 137.126 90.7275C137.455 90.327 137.8 89.918 138.2 89.8918C138.268 89.8874 138.345 89.9051 138.398 89.9167C137.991 90.5192 137.9 90.9873 138.119 91.314L138.118 91.3064Z" fill="#201F1B"/>
<path d="M133.493 88.1396C132.618 88.197 129.338 90.4046 129.271 91.3485L129.274 91.3862L129.276 91.424C129.364 91.8349 129.555 92.0876 129.857 92.189C130.507 92.404 131.327 91.729 132.121 91.0177C132.207 90.9364 132.286 90.8705 132.351 90.8208C132.516 90.6812 132.772 90.5432 133.036 90.4047C133.695 90.0584 134.523 89.6253 134.34 88.8038C134.264 88.4527 133.919 88.1571 133.554 88.1431L133.494 88.1471L133.493 88.1396Z" fill="#201F1B"/>
<path d="M118.877 91.5904C119.179 91.2221 119.467 90.8775 119.781 90.5917L119.851 90.5037C120.111 90.07 120.137 89.6591 119.928 89.3622C119.735 89.0793 119.365 88.9748 118.908 89.0578C118.213 89.2019 117.75 89.8913 117.35 90.4934C117.226 90.6758 117.109 90.8502 116.989 90.9944C116.905 91.0984 116.775 91.1978 116.638 91.3053C116.393 91.4881 116.111 91.7035 115.998 92.0595C115.981 92.1364 115.971 92.2128 115.975 92.2883C115.99 92.5071 116.094 92.7048 116.216 92.8407C116.389 93.0416 116.608 93.156 116.844 93.1633C117.223 93.1763 117.639 92.9369 118.15 92.4109C118.399 92.1522 118.638 91.8713 118.877 91.5829L118.877 91.5904Z" fill="#201F1B"/>
<path d="M134.722 94.3931L134.895 94.1469C134.978 94.0278 135.123 93.9198 135.274 93.8038C135.541 93.6044 135.874 93.3553 135.944 92.9189C135.988 92.666 135.901 92.3837 135.721 92.1758C135.549 91.9825 135.322 91.8762 135.095 91.8835L135.058 91.8859L135.05 91.8864C134.214 91.964 133.645 92.7665 133.187 93.4027C133.076 93.5539 132.972 93.7047 132.874 93.8248C132.79 93.9288 132.668 94.0353 132.539 94.1498C132.245 94.4039 131.908 94.6988 131.863 95.1714C131.865 95.1941 131.866 95.2167 131.868 95.2469C131.89 95.5713 132.145 95.8804 132.403 95.9998C133.287 96.4343 134.196 95.1549 134.745 94.3992L134.722 94.3931Z" fill="#201F1B"/>
<path d="M116.035 95.9742L116.175 95.7983C116.279 95.6476 116.398 95.4958 116.509 95.3445C116.802 94.9617 117.074 94.6029 117.169 94.1951C117.206 93.8441 117.089 93.5563 116.857 93.3745C116.61 93.1862 116.26 93.1561 115.905 93.293L115.868 93.3106C115.419 93.5067 115.011 94.1092 114.66 94.6399C114.515 94.854 114.384 95.052 114.264 95.1887C114.18 95.2927 114.05 95.3997 113.914 95.5071C113.691 95.6884 113.453 95.8783 113.325 96.1215C113.257 96.2397 113.228 96.3704 113.236 96.4986C113.251 96.7249 113.387 96.9509 113.625 97.1096C114.636 97.7479 115.526 96.6364 116.05 95.9732L116.035 95.9742Z" fill="#201F1B"/>
<path d="M141.829 94.2832L141.969 94.1074C142.073 93.9566 142.192 93.8049 142.296 93.6617C142.589 93.2788 142.861 92.92 142.956 92.5122C142.993 92.1612 142.883 91.873 142.644 91.6916C142.397 91.5033 142.046 91.4732 141.692 91.6101L141.655 91.6277C141.206 91.8238 140.798 92.4264 140.439 92.9575C140.294 93.1716 140.163 93.3696 140.051 93.5058C139.966 93.6098 139.837 93.7168 139.7 93.8243C139.477 94.0056 139.24 94.1954 139.104 94.4392C139.036 94.5573 139.007 94.688 139.015 94.8162C139.03 95.0426 139.166 95.2685 139.404 95.4272C140.415 96.0655 141.305 94.9541 141.83 94.2908L141.829 94.2832Z" fill="#201F1B"/>
<path d="M139.123 93.1045C139.308 92.812 139.311 92.3876 139.122 92.059C138.968 91.7887 138.716 91.6386 138.429 91.6499L138.376 91.6533L138.346 91.6553C137.436 91.8741 135.74 93.8642 135.682 94.8227L135.683 94.8453C135.705 95.1773 135.873 95.4239 136.153 95.5419C136.512 95.6927 137.005 95.5846 137.362 95.2581C137.695 94.9104 138.824 93.5105 139.122 93.097L139.123 93.1045Z" fill="#201F1B"/>
<path d="M321.279 56.4405C321.933 56.8295 322.567 56.0984 323.124 55.4558C323.392 55.1504 323.694 54.7972 323.886 54.724C324.318 54.6047 324.864 54.6144 325.402 54.617C325.728 54.6184 326.062 54.6192 326.401 54.597C326.38 54.6286 326.367 54.6598 326.347 54.6915C326.114 55.0704 325.765 55.6464 326.199 56.027C326.655 56.3912 327.252 56.2459 327.615 56.0024C327.912 55.8086 328.197 55.5248 328.467 55.2571C329.157 54.5603 329.623 54.1585 330.237 54.4061C330.323 54.4459 330.396 54.5093 330.484 54.5869C330.573 54.6644 330.677 54.7561 330.795 54.8241C330.953 54.9199 331.122 54.9467 331.275 54.9745C331.336 54.9857 331.397 54.9892 331.428 54.9948C331.46 55.023 331.498 55.1493 331.527 55.2308C331.574 55.3716 331.629 55.5271 331.737 55.6716C331.894 55.8734 332.091 55.9893 332.328 56.0193C332.382 56.0233 332.442 56.0269 332.495 56.0234C333.054 55.9868 333.673 55.4916 334.27 55.0055C334.608 54.7333 334.932 54.4696 335.217 54.3146C335.661 54.0354 336.391 53.7375 336.567 53.9912C336.595 54.0651 336.581 54.2099 336.567 54.3397C336.559 54.4463 336.543 54.5458 336.548 54.6288C336.547 54.9622 336.703 55.2627 336.979 55.4189C337.255 55.5902 337.581 55.584 337.88 55.4128C338.362 55.1312 338.704 54.4572 338.683 53.7843C338.64 53.1279 338.326 52.6257 337.783 52.3128C336.894 51.8104 335.594 51.9714 334.787 52.3804C334.293 52.5946 333.868 52.9255 333.414 53.2735C333.24 53.4061 333.068 53.5462 332.894 53.6712C332.814 53.7219 332.742 53.7797 332.662 53.8304C332.467 53.972 332.3 54.089 332.144 54.1296C332.143 54.1145 332.141 54.0919 332.132 54.0697C332.014 53.4183 331.882 52.6769 331.075 52.5025C330.596 52.3672 329.991 52.3766 329.462 52.5098C328.984 52.6244 328.655 52.7975 328.369 52.9526C328.208 53.0389 328.069 53.1087 327.928 53.1634C327.873 53.1291 327.782 53.0138 327.725 52.9419C327.575 52.7471 327.393 52.509 327.103 52.4825C326.927 52.4561 326.763 52.4972 326.644 52.5278C326.182 52.6489 325.646 52.6765 325.088 52.7131C324.092 52.7784 323.081 52.8372 322.353 53.4077C322.03 53.6864 320.822 54.9097 320.881 55.7999C320.899 56.0715 321.027 56.2979 321.264 56.4491L321.279 56.4405Z" fill="#201F1B"/>
<path d="M363.969 50.1339C363.827 50.1659 363.686 50.2055 363.565 50.2134C363.241 50.2422 362.916 50.2559 362.592 50.2772C362.018 50.3073 361.429 50.3307 360.836 50.4226C360.17 50.5421 359.618 50.5706 358.971 50.5222C358.001 50.5176 357.447 51.3191 356.94 52.0191C356.676 52.3849 356.426 52.7347 356.139 52.9732C355.938 53.1455 355.833 53.3948 355.843 53.6594C355.856 54.0828 356.058 54.2741 356.238 54.3608C356.14 54.3673 356.034 54.3818 355.923 54.4118L355.877 54.4148C355.663 54.497 355.484 54.6527 355.24 54.8581L354.91 55.145C354.509 55.5046 354.059 55.913 353.709 56.3602C353.416 56.8643 353.428 57.3938 353.752 57.706C353.89 57.8409 354.108 57.9403 354.387 57.922C354.576 57.9096 354.799 57.842 355.039 57.6974C355.406 57.4006 356.662 56.2045 356.966 55.874C357.036 55.7936 357.069 55.7232 357.102 55.6377C357.25 55.2416 357.211 54.8729 356.983 54.6303C356.901 54.5447 356.799 54.4832 356.69 54.4373C357.082 54.4116 357.492 54.1877 357.708 54.0295C358.033 53.781 358.289 53.4156 358.511 53.0905C358.642 52.9 358.78 52.694 358.867 52.6353C358.889 52.6187 358.896 52.6107 358.949 52.6072C359.257 52.5718 359.629 52.5853 359.882 52.6218C359.884 52.652 359.87 52.6831 359.872 52.7058C359.821 53.0879 359.742 53.7296 360.282 53.9972C360.571 54.1298 360.911 54.1151 361.302 53.9531C361.908 53.7088 362.2 53.2047 362.439 52.7951C362.575 52.5664 362.698 52.3538 362.829 52.277C363.012 52.1817 363.372 52.1278 363.725 52.0743C364.543 51.9525 365.669 51.7954 365.55 50.7879C365.5 50.4881 365.372 50.2692 365.174 50.1382C364.825 49.9035 364.37 50.0166 363.968 50.1188L363.969 50.1339Z" fill="#201F1B"/>
<path d="M339.553 55.6214C339.179 55.4641 338.689 55.7311 338.229 55.9885L338.141 56.0397C338.075 56.0668 338.016 56.101 337.958 56.1351C337.892 56.1697 337.782 56.23 337.762 56.2616C337.542 55.9199 337.271 55.718 336.958 55.6703C336.314 55.561 335.646 56.12 334.934 56.7046C334.014 57.4619 333.058 58.2444 332.11 57.7762C332.056 57.757 332.002 57.7378 331.947 57.7111C331.604 57.5744 331.076 57.3742 330.728 57.7229L330.672 57.7947C330.45 58.2259 330.479 58.6635 330.744 59.0173C331.201 59.6314 332.232 59.8669 332.888 59.8239C332.964 59.8189 333.024 59.815 333.092 59.803C333.986 59.6989 334.675 59.2294 335.335 58.7695C335.683 58.5269 336.023 58.2924 336.376 58.1254C336.271 58.3747 336.211 58.6211 336.278 58.8213C336.333 59.0829 336.506 59.3064 336.796 59.4541C337.41 59.679 337.82 59.2354 338.251 58.7601C338.406 58.5757 338.566 58.3682 338.72 58.1687C339.013 57.7858 339.32 57.3793 339.574 57.2036C339.9 56.9852 340.017 56.5684 339.891 56.0387C339.822 55.7932 339.671 55.6819 339.554 55.6365L339.553 55.6214Z" fill="#201F1B"/>
<path d="M349.248 56.6149C349.456 56.0785 349.289 55.7408 349.118 55.5475C348.432 54.7969 346.45 55.0784 345.803 55.2647C345.319 55.395 344.93 55.6932 344.547 55.9835C344.389 56.1075 344.237 56.2236 344.063 56.3335C344.049 56.0162 343.925 55.7439 343.71 55.5762C343.463 55.3879 343.134 55.3412 342.734 55.4886C342.167 55.8441 341.253 56.8208 340.98 57.1569C340.82 57.3795 340.773 57.6933 340.855 58.0288C340.976 58.4906 341.418 58.5298 341.685 58.5502C341.807 58.5574 341.929 58.5721 342.007 58.6124C342.062 58.6391 342.104 58.697 342.179 58.8058L342.262 58.914C342.403 59.1093 342.648 59.2599 342.924 59.3025C343.023 59.3111 343.114 59.3127 343.204 59.3068C343.974 59.2563 344.535 58.6816 345.082 58.123C345.777 57.4106 346.43 56.739 347.545 56.9766L347.751 57.0009C348.209 57.0542 348.843 57.1339 349.201 56.7013L349.249 56.6224L349.248 56.6149Z" fill="#201F1B"/>
<path d="M314.956 56.961C315.27 57.1299 315.677 57.088 315.958 56.8726C316.308 56.6603 316.612 56.3372 316.903 56.0303C317.286 55.6264 317.647 55.239 318.063 55.1132C318.249 55.0707 318.415 55.0598 318.507 55.069C318.468 55.17 318.378 55.3047 318.303 55.4233C318.207 55.5736 318.117 55.7083 318.054 55.9094C318.002 56.3901 318.192 56.6277 318.366 56.7375C318.516 56.8337 318.701 56.8746 318.92 56.8603C319.184 56.843 319.488 56.7397 319.802 56.56C320.385 56.2187 321.053 55.5385 321.002 54.7539C320.97 54.2711 320.77 53.875 320.403 53.596C319.662 53.0385 318.399 53.0758 317.541 53.276L317.488 53.2795C316.659 53.5838 314.764 55.0643 314.524 56.1483C314.494 56.4988 314.658 56.8063 314.949 56.9691L314.956 56.961Z" fill="#201F1B"/>
<path d="M330.307 56.5003C330.063 56.2511 329.688 56.1924 329.273 56.3408L329.236 56.3432C328.815 56.5148 328.558 56.865 328.3 57.2153C328.12 57.4695 327.924 57.7248 327.658 57.9392C327.385 58.1693 326.949 58.3267 326.555 58.3374C326.344 58.3512 326.068 58.3011 325.776 58.2445C325.201 58.1382 324.557 58.0213 324.087 58.3552C324.051 58.3879 324.023 58.4276 323.995 58.4673C323.86 58.3625 323.674 58.299 323.454 58.2982C323.112 58.2903 322.702 58.3854 322.299 58.48C322.12 58.522 321.933 58.5646 321.769 58.5981C321.499 58.6385 321.297 58.6745 321.151 58.6462C321.201 58.5975 321.257 58.5407 321.3 58.5C321.543 58.2795 321.843 58.0022 321.84 57.6084C321.839 57.3585 321.717 57.1089 321.435 56.8546C320.504 56.1807 319.67 57.3189 319.169 58.0033L318.884 58.4008C319.044 57.9508 319.085 57.539 318.916 57.2622C318.772 57.0367 318.455 56.8227 317.761 57.0955L317.702 57.1221C317.372 57.2952 317.119 57.7134 316.866 58.1164C316.783 58.2506 316.701 58.3848 316.611 58.5119C316.496 58.7165 316.302 58.8883 316.11 59.0676C315.873 59.2801 315.63 59.5006 315.476 59.7986C315.293 60.1364 315.346 60.4814 315.634 60.7201C315.857 60.8798 316.104 60.9545 316.376 60.9367C316.768 60.911 317.209 60.6927 317.637 60.2934C317.794 60.1467 317.963 59.9537 318.117 59.7542C318.118 59.7769 318.119 59.792 318.121 59.8146C318.12 60.1405 318.218 60.3765 318.402 60.5235C318.57 60.6565 318.761 60.6818 318.98 60.6675C319.161 60.6556 319.348 60.6131 319.527 60.571C319.735 60.5195 319.952 60.4749 320.12 60.4867L320.294 60.4904C321.849 60.5173 323.375 60.4476 324.006 59.7774C324.076 59.7045 324.124 59.6256 324.172 59.5392C324.375 59.7456 324.666 59.9083 325.044 60.0199C325.523 60.1552 326.132 60.1987 326.713 60.1606C327.369 60.1175 327.996 59.9704 328.367 59.7339C328.749 59.4437 330.038 58.4196 330.446 57.5822C330.6 57.163 330.543 56.7576 330.292 56.5013L330.307 56.5003Z" fill="#201F1B"/>
<path d="M350.528 50.9393C349.653 50.9966 346.373 53.2043 346.306 54.1482L346.308 54.1859L346.311 54.2236C346.398 54.6346 346.589 54.8873 346.891 54.9887C346.992 55.02 347.099 55.0357 347.212 55.0283C347.801 54.9897 348.49 54.4142 349.163 53.8169C349.249 53.7356 349.328 53.6698 349.385 53.6205C349.55 53.4809 349.807 53.3504 350.07 53.2044C350.729 52.8581 351.557 52.4174 351.374 51.6035C351.298 51.2524 350.953 50.9568 350.589 50.9428L350.569 51.2245L350.528 50.9393Z" fill="#201F1B"/>
<path d="M315.726 57.3728C315.617 57.2208 315.36 56.9952 314.837 57.1053L314.784 57.1088C314.496 57.2186 314.303 57.3979 314.039 57.6501L313.796 57.8781C313.476 58.1946 313.122 58.5664 312.805 58.9281C312.579 59.1854 312.263 59.5622 312.049 59.8793C311.869 60.1487 311.697 60.4024 311.861 60.8386C311.962 61.0973 312.154 61.2514 312.405 61.2728C312.443 61.2703 312.489 61.2749 312.526 61.2724C313.59 61.2027 315.395 59.0386 315.643 58.6511C315.917 58.2089 315.951 57.6839 315.725 57.3653L315.726 57.3728Z" fill="#201F1B"/>
<path d="M344.011 55.2003C344.094 55.1949 344.176 55.1818 344.25 55.1543C344.917 54.9212 345.29 54.3739 345.656 53.8347C345.864 53.5256 346.064 53.2397 346.286 53.0433L346.366 52.985C346.453 52.9263 346.554 52.8515 346.638 52.7475L346.674 52.7073C346.944 52.3259 346.99 51.8758 346.78 51.5562C346.594 51.2578 346.244 51.1291 345.825 51.2096C345.114 51.3396 344.628 52.0155 344.156 52.6678C343.885 53.0416 343.635 53.3914 343.376 53.5978C343.166 53.7555 343.016 54.0078 342.988 54.2673C342.964 54.4885 343.016 54.7048 343.147 54.8553C343.338 55.108 343.694 55.2135 344.003 55.1932L344.011 55.2003Z" fill="#201F1B"/>
<path d="M359.586 54.2399C358.914 54.6173 357.472 56.6591 357.435 57.4798C357.454 57.7665 357.715 58.0599 358.062 58.1433C358.115 58.1474 358.176 58.151 358.229 58.1475C358.915 58.1025 359.443 57.3708 359.832 56.8301C359.908 56.7266 359.978 56.6312 360.04 56.5437C360.096 56.4719 360.137 56.401 360.186 56.3372C360.29 56.1864 360.358 56.0759 360.517 55.9594L360.597 55.9011C360.691 55.8343 360.793 55.7671 360.876 55.6555L360.904 55.6158C361.202 55.1947 361.224 54.7159 360.953 54.3928C360.657 54.0409 360.122 53.9774 359.579 54.2404L359.586 54.2399Z" fill="#201F1B"/>
<path d="M351.423 54.8811L351.349 54.9087C350.968 55.1155 350.614 55.6009 350.266 56.0708C350.099 56.2939 349.939 56.5165 349.776 56.6938C349.552 56.9737 349.332 57.2003 349.138 57.357C348.995 57.4876 348.91 57.6902 348.901 57.9029C348.861 58.3374 349.094 58.5342 349.236 58.6159C349.393 58.704 349.576 58.7299 349.773 58.717C350.142 58.6928 350.533 58.5233 350.764 58.3566C351.267 57.9372 352.343 56.7756 352.595 56.1151C352.74 55.6737 352.683 55.2683 352.432 55.0196C352.294 54.8846 351.978 54.6856 351.422 54.8736L351.423 54.8811Z" fill="#201F1B"/>
<path d="M352.179 54.5133C352.24 54.5244 352.309 54.5275 352.377 54.5231C353.282 54.4637 354.755 53.2458 355.02 52.6677C355.246 52.1832 355.076 51.8913 354.961 51.7624C354.667 51.4407 354.107 51.4396 353.707 51.5795L353.662 51.5975C353.286 51.7585 352.791 52.1699 352.131 52.8572L352.068 52.9295C351.898 53.1224 351.715 53.3239 351.635 53.6095C351.618 53.694 351.617 53.7925 351.623 53.8906C351.661 54.2442 351.866 54.4732 352.18 54.5209L352.179 54.5133Z" fill="#201F1B"/>
<path d="M339.835 55.2923L339.857 55.2908C340.641 55.2242 341.75 54.2347 342.009 53.6647C342.174 53.2978 342.127 52.922 341.889 52.6572C341.652 52.3849 341.259 52.2894 340.888 52.4047L340.843 52.4076C340.23 52.6524 339.514 53.5251 339.423 53.6372L339.354 53.7327C339.103 54.0749 338.826 54.4643 339.124 54.9676C339.283 55.1996 339.533 55.3195 339.835 55.2998L339.835 55.2923Z" fill="#201F1B"/>
</svg>
